<svg width="16" height="19" viewBox="0 0 16 19" fill="none" xmlns="http://www.w3.org/2000/svg">
<path fill-rule="evenodd" clip-rule="evenodd" d="M10.8293 2.8763C11.0371 2.69445 11.0581 2.37857 10.8763 2.17075C10.6945 1.96294 10.3786 1.94188 10.1708 2.12372L6.17075 5.62372L2.177 9.11825C2.16651 9.12715 2.15631 9.13655 2.14644 9.14644C2.10541 9.18739 2.07288 9.23397 2.049 9.28385C2.01618 9.35225 1.99997 9.42623 2 9.50001C1.99997 9.57378 2.01618 9.64777 2.049 9.71616C2.07288 9.76604 2.10541 9.81263 2.14644 9.85357C2.15631 9.86347 2.16651 9.87286 2.177 9.88176L10.1708 16.8763C10.3786 17.0581 10.6945 17.0371 10.8763 16.8293C11.0581 16.6214 11.0371 16.3056 10.8293 16.1237L3.2593 9.50001L6.82926 6.3763L10.8293 2.8763Z" fill="#212121"/>
<path d="M10.8763 2.17075L11.817 1.34762L10.8763 2.17075ZM10.8293 2.8763L11.6524 3.81702V3.81702L10.8293 2.8763ZM10.1708 2.12372L10.9939 3.06444V3.06444L10.1708 2.12372ZM6.17075 5.62372L6.99389 6.56444L6.17075 5.62372ZM2.177 9.11825L2.98559 10.0715L2.99291 10.0653L3.00013 10.059L2.177 9.11825ZM2.14644 9.14644L3.02945 10.0312L3.0312 10.0294L2.14644 9.14644ZM2.049 9.28385L3.17593 9.82472L3.17648 9.82357L2.049 9.28385ZM2 9.50001L3.25 9.50051L3.25 9.4995L2 9.50001ZM2.049 9.71616L3.17648 9.17645L3.17593 9.17529L2.049 9.71616ZM2.14644 9.85357L3.0312 8.97057L3.02945 8.96882L2.14644 9.85357ZM2.177 9.88176L3.00013 8.94104L2.99291 8.93472L2.9856 8.92852L2.177 9.88176ZM10.1708 16.8763L10.9939 15.9356L10.1708 16.8763ZM10.8293 16.1237L11.6524 15.183L10.8293 16.1237ZM3.2593 9.50001L2.43617 8.55929L1.36106 9.50001L2.43617 10.4407L3.2593 9.50001ZM6.82926 6.3763L7.65239 7.31702H7.65239L6.82926 6.3763ZM9.93557 2.99388C9.66281 2.68216 9.6944 2.20834 10.0061 1.93557L11.6524 3.81702C12.3798 3.18057 12.4535 2.07499 11.817 1.34762L9.93557 2.99388ZM10.9939 3.06444C10.6822 3.3372 10.2083 3.30561 9.93557 2.99388L11.817 1.34762C11.1806 0.62026 10.075 0.546554 9.34762 1.183L10.9939 3.06444ZM6.99389 6.56444L10.9939 3.06444L9.34762 1.183L5.34762 4.683L6.99389 6.56444ZM3.00013 10.059L6.99389 6.56444L5.34762 4.683L1.35387 8.17753L3.00013 10.059ZM3.0312 10.0294C3.01663 10.0441 3.00141 10.0581 2.98559 10.0715L1.36841 8.16501C1.33161 8.19622 1.296 8.22905 1.26168 8.26344L3.0312 10.0294ZM3.17648 9.82357C3.1401 9.89956 3.09062 9.97015 3.02945 10.0312L1.26343 8.26168C1.1202 8.40463 1.00565 8.56839 0.921523 8.74414L3.17648 9.82357ZM3.25 9.4995C3.25004 9.60889 3.226 9.72039 3.17593 9.82472L0.922078 8.74298C0.806348 8.98411 0.749897 9.24357 0.75 9.50051L3.25 9.4995ZM3.17593 9.17529C3.226 9.27962 3.25004 9.39111 3.25 9.50051L0.75 9.4995C0.749896 9.75645 0.806352 10.0159 0.922078 10.257L3.17593 9.17529ZM3.02945 8.96882C3.09063 9.02988 3.14011 9.10047 3.17648 9.17645L0.921525 10.2559C1.00565 10.4316 1.12019 10.5954 1.26343 10.7383L3.02945 8.96882ZM2.9856 8.92852C3.00137 8.9419 3.01659 8.95593 3.0312 8.97057L1.26168 10.7366C1.29604 10.771 1.33165 10.8038 1.36841 10.835L2.9856 8.92852ZM10.9939 15.9356L3.00013 8.94104L1.35387 10.8225L9.34762 17.817L10.9939 15.9356ZM9.93558 16.0061C10.2083 15.6944 10.6822 15.6628 10.9939 15.9356L9.34762 17.817C10.075 18.4535 11.1806 18.3798 11.817 17.6524L9.93558 16.0061ZM10.0061 17.0644C9.6944 16.7917 9.66281 16.3179 9.93558 16.0061L11.817 17.6524C12.4535 16.925 12.3798 15.8194 11.6524 15.183L10.0061 17.0644ZM2.43617 10.4407L10.0061 17.0644L11.6524 15.183L4.08243 8.55929L2.43617 10.4407ZM6.00613 5.43557L2.43617 8.55929L4.08243 10.4407L7.65239 7.31702L6.00613 5.43557ZM10.0061 1.93557L6.00613 5.43557L7.65239 7.31702L11.6524 3.81702L10.0061 1.93557Z" fill="#212121"/>
</svg>
