<svg width="16" height="16" viewBox="0 0 16 16" fill="none" xmlns="http://www.w3.org/2000/svg">
<g clip-path="url(#clip0_107_165)">
<path d="M1.5153 4.83266L1.50147 4.96188C1.50108 4.9655 1.5 4.97778 1.5 4.99999L1.5153 4.83266ZM1.5153 4.83266L1.5067 4.70299M1.5153 4.83266L1.5067 4.70299M1.5067 4.70299C1.50227 4.63611 1.5 4.56843 1.5 4.5C1.5 2.84315 2.84315 1.5 4.5 1.5C5.44179 1.5 6.28153 1.93223 6.83395 2.6149L8 4.0559M1.5067 4.70299L8 4.0559M8 4.0559L9.16605 2.6149M8 4.0559L9.16605 2.6149M9.16605 2.6149C9.71848 1.93222 10.5582 1.5 11.5 1.5C13.1569 1.5 14.5 2.84315 14.5 4.5C14.5 4.56844 14.4977 4.63611 14.4933 4.70298L14.4847 4.83266M9.16605 2.6149L14.4847 4.83266M14.4847 4.83266L14.4985 4.96188M14.4847 4.83266L14.4985 4.96188M14.4985 4.96188C14.4989 4.96551 14.5 4.97779 14.5 5M14.4985 4.96188L14.5 5M8 13.8125C7.95254 13.7611 7.90387 13.7083 7.85408 13.6542C7.11462 12.8501 6.13232 11.7536 5.15328 10.5764C4.16919 9.39311 3.21256 8.15711 2.50987 7.06963C2.15801 6.5251 1.8893 6.04754 1.71325 5.65354C1.62588 5.45801 1.56919 5.30041 1.53565 5.17905C1.50224 5.05814 1.50011 5.00284 1.5 5.00009L8 13.8125ZM8 13.8125C8.04746 13.7611 8.09613 13.7083 8.14592 13.6542M8 13.8125L8.14592 13.6542M14.5 5L14.5 5.0001M14.5 5L14.5 5.0001M14.5 5.0001C14.4999 5.00285 14.4978 5.05815 14.4643 5.17906M14.5 5.0001L14.4643 5.17906M14.4643 5.17906C14.4308 5.30041 14.3741 5.45801 14.2868 5.65354M14.4643 5.17906L14.2868 5.65354M14.2868 5.65354C14.1107 6.04754 13.842 6.52511 13.4901 7.06964M14.2868 5.65354L13.4901 7.06964M13.4901 7.06964C12.7874 8.15711 11.8308 9.39312 10.8467 10.5764M13.4901 7.06964L10.8467 10.5764M10.8467 10.5764C9.86768 11.7536 8.88538 12.8501 8.14592 13.6542M10.8467 10.5764L8.14592 13.6542" stroke="#212121" stroke-width="3"/>
</g>
<defs>
<clipPath id="clip0_107_165">
<rect width="16" height="16" fill="white"/>
</clipPath>
</defs>
</svg>
