<svg width="21" height="22" viewBox="0 0 21 22" fill="none" xmlns="http://www.w3.org/2000/svg">
<path fill-rule="evenodd" clip-rule="evenodd" d="M14.5 8C14.5 10.8969 11.9587 13.5 8.5 13.5C5.04134 13.5 2.5 10.8969 2.5 8C2.5 5.10306 5.04134 2.5 8.5 2.5C11.9587 2.5 14.5 5.10306 14.5 8ZM13.2275 14.6495C11.8758 15.5025 10.2496 16 8.5 16C3.80558 16 0 12.4183 0 8C0 3.58172 3.80558 0 8.5 0C13.1944 0 17 3.58172 17 8C17 9.89982 16.2964 11.645 15.121 13.0172L20.7083 19.5357C21.1576 20.0599 21.0969 20.849 20.5727 21.2983C20.0486 21.7476 19.2595 21.6869 18.8102 21.1627L13.2275 14.6495Z" fill="#111111"/>
</svg>
