<svg width="62" height="58" viewBox="0 0 62 58" fill="none" xmlns="http://www.w3.org/2000/svg">
<rect width="62" height="58" fill="white"/>
<mask id="path-1-inside-1_31_77" fill="white">
<path fill-rule="evenodd" clip-rule="evenodd" d="M55 29C55 42.2548 44.2548 53 31 53C17.7452 53 7 42.2548 7 29C7 15.7452 17.7452 5 31 5C44.2548 5 55 15.7452 55 29ZM56 29C56 42.8071 44.8071 54 31 54C17.1929 54 6 42.8071 6 29C6 15.1929 17.1929 4 31 4C44.8071 4 56 15.1929 56 29ZM30.6753 19.5844H31.974V28.6753H41.0649V29.974H31.974V39.0649H30.6753V29.974H21.5844V28.6753H30.6753V19.5844Z"/>
</mask>
<path fill-rule="evenodd" clip-rule="evenodd" d="M55 29C55 42.2548 44.2548 53 31 53C17.7452 53 7 42.2548 7 29C7 15.7452 17.7452 5 31 5C44.2548 5 55 15.7452 55 29ZM56 29C56 42.8071 44.8071 54 31 54C17.1929 54 6 42.8071 6 29C6 15.1929 17.1929 4 31 4C44.8071 4 56 15.1929 56 29ZM30.6753 19.5844H31.974V28.6753H41.0649V29.974H31.974V39.0649H30.6753V29.974H21.5844V28.6753H30.6753V19.5844Z" fill="#D9D9D9"/>
<path d="M31.974 19.5844H33.974V17.5844H31.974V19.5844ZM30.6753 19.5844V17.5844H28.6753V19.5844H30.6753ZM31.974 28.6753H29.974V30.6753H31.974V28.6753ZM41.0649 28.6753H43.0649V26.6753H41.0649V28.6753ZM41.0649 29.974V31.974H43.0649V29.974H41.0649ZM31.974 29.974V27.974H29.974V29.974H31.974ZM31.974 39.0649V41.0649H33.974V39.0649H31.974ZM30.6753 39.0649H28.6753V41.0649H30.6753V39.0649ZM30.6753 29.974H32.6753V27.974H30.6753V29.974ZM21.5844 29.974H19.5844V31.974H21.5844V29.974ZM21.5844 28.6753V26.6753H19.5844V28.6753H21.5844ZM30.6753 28.6753V30.6753H32.6753V28.6753H30.6753ZM31 55C45.3594 55 57 43.3594 57 29H53C53 41.1503 43.1503 51 31 51V55ZM5 29C5 43.3594 16.6406 55 31 55V51C18.8497 51 9 41.1503 9 29H5ZM31 3C16.6406 3 5 14.6406 5 29H9C9 16.8497 18.8497 7 31 7V3ZM57 29C57 14.6406 45.3594 3 31 3V7C43.1503 7 53 16.8497 53 29H57ZM31 56C45.9117 56 58 43.9117 58 29H54C54 41.7025 43.7025 52 31 52V56ZM4 29C4 43.9117 16.0883 56 31 56V52C18.2975 52 8 41.7025 8 29H4ZM31 2C16.0883 2 4 14.0883 4 29H8C8 16.2975 18.2975 6 31 6V2ZM58 29C58 14.0883 45.9117 2 31 2V6C43.7025 6 54 16.2975 54 29H58ZM31.974 17.5844H30.6753V21.5844H31.974V17.5844ZM33.974 28.6753V19.5844H29.974V28.6753H33.974ZM41.0649 26.6753H31.974V30.6753H41.0649V26.6753ZM43.0649 29.974V28.6753H39.0649V29.974H43.0649ZM31.974 31.974H41.0649V27.974H31.974V31.974ZM33.974 39.0649V29.974H29.974V39.0649H33.974ZM30.6753 41.0649H31.974V37.0649H30.6753V41.0649ZM28.6753 29.974V39.0649H32.6753V29.974H28.6753ZM21.5844 31.974H30.6753V27.974H21.5844V31.974ZM19.5844 28.6753V29.974H23.5844V28.6753H19.5844ZM30.6753 26.6753H21.5844V30.6753H30.6753V26.6753ZM28.6753 19.5844V28.6753H32.6753V19.5844H28.6753Z" fill="#D9D9D9" mask="url(#path-1-inside-1_31_77)"/>
</svg>
