<svg width="16" height="16" viewBox="0 0 16 16" fill="none" xmlns="http://www.w3.org/2000/svg">
<g clip-path="url(#clip0_77_229)">
<path fill-rule="evenodd" clip-rule="evenodd" d="M8 1.67134C7.17502 0.651835 5.91363 0 4.5 0C2.01472 0 0 2.01472 0 4.5C0 4.60893 0.0038706 4.71696 0.0114818 4.82396C0.00387937 4.87827 0 4.93689 0 5.00001C0 5.22025 0.06675 5.48783 0.18842 5.79265C0.380136 6.43302 0.710624 7.01346 1.14497 7.49903C3.46449 10.9558 8.5 16 8.5 16C8.5 16 16 7.48528 16 5C16 4.93301 15.9964 4.87108 15.9892 4.81399C15.9964 4.71025 16 4.60555 16 4.5C16 2.01472 13.9853 0 11.5 0C10.0864 0 8.82498 0.651835 8 1.67134Z" fill="#D9D9D9"/>
</g>
<defs>
<clipPath id="clip0_77_229">
<rect width="16" height="16" fill="white"/>
</clipPath>
</defs>
</svg>
