<svg width="375" height="812" viewBox="0 0 375 812" fill="none" xmlns="http://www.w3.org/2000/svg">
<rect width="375" height="812" fill="white"/>
<path d="M110.335 772H107.352V761.818H110.514C111.485 761.818 112.316 762.02 113.005 762.425C113.698 762.829 114.228 763.409 114.596 764.165C114.964 764.92 115.148 765.827 115.148 766.884C115.148 767.951 114.959 768.868 114.581 769.634C114.206 770.396 113.66 770.981 112.94 771.388C112.224 771.796 111.356 772 110.335 772ZM108.282 771.165H110.281C111.156 771.165 111.888 770.992 112.478 770.648C113.068 770.303 113.51 769.811 113.805 769.171C114.1 768.531 114.248 767.769 114.248 766.884C114.245 766.006 114.099 765.25 113.81 764.617C113.525 763.984 113.101 763.499 112.538 763.161C111.978 762.822 111.285 762.653 110.46 762.653H108.282V771.165ZM120.185 772.159C119.526 772.159 118.942 771.992 118.435 771.657C117.931 771.322 117.537 770.86 117.252 770.27C116.967 769.677 116.824 768.992 116.824 768.217C116.824 767.434 116.967 766.747 117.252 766.153C117.537 765.557 117.931 765.093 118.435 764.761C118.942 764.427 119.526 764.259 120.185 764.259C120.845 764.259 121.426 764.427 121.93 764.761C122.434 765.096 122.828 765.56 123.113 766.153C123.402 766.747 123.546 767.434 123.546 768.217C123.546 768.992 123.403 769.677 123.118 770.27C122.833 770.86 122.437 771.322 121.93 771.657C121.426 771.992 120.845 772.159 120.185 772.159ZM120.185 771.349C120.715 771.349 121.165 771.206 121.532 770.921C121.9 770.636 122.179 770.257 122.368 769.783C122.56 769.309 122.656 768.787 122.656 768.217C122.656 767.647 122.56 767.123 122.368 766.646C122.179 766.168 121.9 765.786 121.532 765.497C121.165 765.209 120.715 765.065 120.185 765.065C119.658 765.065 119.209 765.209 118.838 765.497C118.47 765.786 118.19 766.168 117.998 766.646C117.809 767.123 117.714 767.647 117.714 768.217C117.714 768.787 117.809 769.309 117.998 769.783C118.19 770.257 118.47 770.636 118.838 770.921C119.206 771.206 119.655 771.349 120.185 771.349ZM126.374 767.227V772H125.489V764.364H126.349V765.562H126.428C126.607 765.171 126.886 764.857 127.263 764.622C127.645 764.384 128.115 764.264 128.675 764.264C129.189 764.264 129.64 764.372 130.028 764.587C130.419 764.799 130.722 765.113 130.938 765.527C131.156 765.941 131.266 766.45 131.266 767.053V772H130.381V767.108C130.381 766.482 130.205 765.986 129.854 765.621C129.506 765.257 129.038 765.075 128.452 765.075C128.051 765.075 127.694 765.161 127.383 765.333C127.071 765.505 126.824 765.754 126.642 766.079C126.463 766.4 126.374 766.783 126.374 767.227ZM134.401 761.818V762.713C134.401 762.985 134.352 763.275 134.252 763.583C134.156 763.888 134.014 764.185 133.825 764.473C133.639 764.758 133.414 765.007 133.149 765.219L132.666 764.796C132.915 764.504 133.125 764.181 133.298 763.827C133.47 763.469 133.556 763.103 133.556 762.728V761.818H134.401ZM139.256 764.364V765.134H135.612V764.364H139.256ZM136.751 762.534H137.64V770.006C137.64 770.325 137.695 770.575 137.805 770.757C137.914 770.936 138.056 771.064 138.232 771.14C138.408 771.213 138.595 771.249 138.794 771.249C138.91 771.249 139.009 771.243 139.092 771.229C139.175 771.213 139.248 771.196 139.311 771.18L139.5 771.98C139.414 772.013 139.308 772.043 139.182 772.07C139.056 772.099 138.9 772.114 138.714 772.114C138.39 772.114 138.076 772.043 137.775 771.901C137.476 771.758 137.231 771.546 137.039 771.264C136.847 770.982 136.751 770.633 136.751 770.215V762.534ZM146.088 767.227V772H145.203V761.818H146.088V765.562H146.168C146.347 765.167 146.624 764.853 146.998 764.617C147.376 764.382 147.853 764.264 148.43 764.264C148.947 764.264 149.401 764.37 149.792 764.582C150.183 764.795 150.488 765.108 150.707 765.522C150.926 765.936 151.035 766.447 151.035 767.053V772H150.145V767.108C150.145 766.478 149.97 765.983 149.618 765.621C149.27 765.257 148.8 765.075 148.206 765.075C147.799 765.075 147.436 765.161 147.118 765.333C146.799 765.505 146.547 765.754 146.362 766.079C146.18 766.4 146.088 766.783 146.088 767.227ZM155.498 772.174C155.038 772.174 154.617 772.085 154.236 771.906C153.854 771.723 153.551 771.461 153.326 771.12C153.1 770.775 152.988 770.358 152.988 769.867C152.988 769.489 153.059 769.171 153.202 768.913C153.344 768.654 153.546 768.442 153.808 768.276C154.07 768.111 154.38 767.98 154.738 767.884C155.096 767.787 155.49 767.713 155.921 767.66C156.349 767.607 156.71 767.56 157.005 767.521C157.303 767.481 157.53 767.418 157.686 767.332C157.842 767.246 157.92 767.106 157.92 766.914V766.735C157.92 766.215 157.764 765.805 157.452 765.507C157.144 765.205 156.7 765.055 156.12 765.055C155.57 765.055 155.121 765.176 154.773 765.418C154.428 765.66 154.186 765.945 154.047 766.273L153.206 765.969C153.379 765.552 153.617 765.219 153.922 764.97C154.227 764.718 154.569 764.538 154.947 764.428C155.324 764.316 155.707 764.259 156.095 764.259C156.387 764.259 156.69 764.297 157.005 764.374C157.323 764.45 157.618 764.582 157.89 764.771C158.162 764.957 158.382 765.217 158.551 765.552C158.72 765.883 158.805 766.304 158.805 766.815V772H157.92V770.792H157.865C157.759 771.017 157.601 771.236 157.393 771.448C157.184 771.66 156.922 771.834 156.607 771.97C156.292 772.106 155.923 772.174 155.498 772.174ZM155.618 771.364C156.088 771.364 156.496 771.259 156.841 771.05C157.185 770.842 157.451 770.565 157.636 770.22C157.825 769.872 157.92 769.489 157.92 769.072V767.968C157.853 768.031 157.742 768.087 157.586 768.137C157.434 768.187 157.257 768.232 157.055 768.271C156.856 768.308 156.657 768.339 156.458 768.366C156.259 768.392 156.08 768.415 155.921 768.435C155.49 768.488 155.122 768.571 154.817 768.684C154.512 768.797 154.279 768.952 154.116 769.151C153.954 769.347 153.873 769.599 153.873 769.907C153.873 770.371 154.038 770.731 154.37 770.986C154.701 771.238 155.117 771.364 155.618 771.364ZM166.796 764.364L164.007 772H163.063L160.274 764.364H161.233L163.5 770.832H163.57L165.837 764.364H166.796ZM171.342 772.159C170.629 772.159 170.013 771.993 169.492 771.662C168.972 771.327 168.569 770.865 168.284 770.275C168.002 769.682 167.862 768.999 167.862 768.227C167.862 767.458 168.002 766.775 168.284 766.178C168.569 765.578 168.962 765.109 169.462 764.771C169.966 764.43 170.548 764.259 171.207 764.259C171.622 764.259 172.021 764.335 172.406 764.488C172.79 764.637 173.135 764.867 173.44 765.179C173.748 765.487 173.991 765.877 174.17 766.347C174.349 766.815 174.439 767.368 174.439 768.008V768.445H168.473V767.665H173.534C173.534 767.174 173.435 766.733 173.236 766.342C173.04 765.948 172.767 765.636 172.415 765.408C172.067 765.179 171.665 765.065 171.207 765.065C170.723 765.065 170.298 765.194 169.93 765.452C169.562 765.711 169.273 766.052 169.065 766.477C168.859 766.901 168.755 767.365 168.751 767.869V768.336C168.751 768.942 168.856 769.473 169.065 769.927C169.277 770.378 169.577 770.727 169.964 770.976C170.352 771.224 170.811 771.349 171.342 771.349C171.703 771.349 172.019 771.292 172.291 771.18C172.566 771.067 172.797 770.916 172.982 770.727C173.171 770.535 173.314 770.325 173.41 770.096L174.25 770.369C174.134 770.691 173.943 770.987 173.678 771.259C173.416 771.531 173.088 771.75 172.694 771.915C172.303 772.078 171.852 772.159 171.342 772.159ZM182.459 772.174C181.999 772.174 181.578 772.085 181.197 771.906C180.815 771.723 180.512 771.461 180.287 771.12C180.061 770.775 179.949 770.358 179.949 769.867C179.949 769.489 180.02 769.171 180.162 768.913C180.305 768.654 180.507 768.442 180.769 768.276C181.031 768.111 181.341 767.98 181.699 767.884C182.057 767.787 182.451 767.713 182.882 767.66C183.309 767.607 183.671 767.56 183.966 767.521C184.264 767.481 184.491 767.418 184.647 767.332C184.803 767.246 184.881 767.106 184.881 766.914V766.735C184.881 766.215 184.725 765.805 184.413 765.507C184.105 765.205 183.661 765.055 183.081 765.055C182.531 765.055 182.081 765.176 181.733 765.418C181.389 765.66 181.147 765.945 181.008 766.273L180.167 765.969C180.34 765.552 180.578 765.219 180.883 764.97C181.188 764.718 181.53 764.538 181.907 764.428C182.285 764.316 182.668 764.259 183.056 764.259C183.348 764.259 183.651 764.297 183.966 764.374C184.284 764.45 184.579 764.582 184.851 764.771C185.122 764.957 185.343 765.217 185.512 765.552C185.681 765.883 185.765 766.304 185.765 766.815V772H184.881V770.792H184.826C184.72 771.017 184.562 771.236 184.354 771.448C184.145 771.66 183.883 771.834 183.568 771.97C183.253 772.106 182.884 772.174 182.459 772.174ZM182.579 771.364C183.049 771.364 183.457 771.259 183.802 771.05C184.146 770.842 184.412 770.565 184.597 770.22C184.786 769.872 184.881 769.489 184.881 769.072V767.968C184.814 768.031 184.703 768.087 184.547 768.137C184.395 768.187 184.218 768.232 184.015 768.271C183.817 768.308 183.618 768.339 183.419 768.366C183.22 768.392 183.041 768.415 182.882 768.435C182.451 768.488 182.083 768.571 181.778 768.684C181.473 768.797 181.24 768.952 181.077 769.151C180.915 769.347 180.834 769.599 180.834 769.907C180.834 770.371 180.999 770.731 181.331 770.986C181.662 771.238 182.078 771.364 182.579 771.364ZM189.004 767.227V772H188.119V764.364H188.98V765.562H189.059C189.238 765.171 189.517 764.857 189.894 764.622C190.276 764.384 190.746 764.264 191.306 764.264C191.82 764.264 192.271 764.372 192.659 764.587C193.05 764.799 193.353 765.113 193.568 765.527C193.787 765.941 193.896 766.45 193.896 767.053V772H193.012V767.108C193.012 766.482 192.836 765.986 192.485 765.621C192.137 765.257 191.669 765.075 191.083 765.075C190.682 765.075 190.325 765.161 190.014 765.333C189.702 765.505 189.455 765.754 189.273 766.079C189.094 766.4 189.004 766.783 189.004 767.227ZM202.297 772.174C201.837 772.174 201.416 772.085 201.034 771.906C200.653 771.723 200.35 771.461 200.125 771.12C199.899 770.775 199.787 770.358 199.787 769.867C199.787 769.489 199.858 769.171 200 768.913C200.143 768.654 200.345 768.442 200.607 768.276C200.869 768.111 201.179 767.98 201.537 767.884C201.895 767.787 202.289 767.713 202.72 767.66C203.147 767.607 203.509 767.56 203.804 767.521C204.102 767.481 204.329 767.418 204.485 767.332C204.641 767.246 204.718 767.106 204.718 766.914V766.735C204.718 766.215 204.563 765.805 204.251 765.507C203.943 765.205 203.499 765.055 202.919 765.055C202.368 765.055 201.919 765.176 201.571 765.418C201.227 765.66 200.985 765.945 200.846 766.273L200.005 765.969C200.178 765.552 200.416 765.219 200.721 764.97C201.026 764.718 201.368 764.538 201.745 764.428C202.123 764.316 202.506 764.259 202.894 764.259C203.185 764.259 203.489 764.297 203.804 764.374C204.122 764.45 204.417 764.582 204.689 764.771C204.96 764.957 205.181 765.217 205.35 765.552C205.519 765.883 205.603 766.304 205.603 766.815V772H204.718V770.792H204.664C204.558 771.017 204.4 771.236 204.191 771.448C203.983 771.66 203.721 771.834 203.406 771.97C203.091 772.106 202.721 772.174 202.297 772.174ZM202.417 771.364C202.887 771.364 203.295 771.259 203.64 771.05C203.984 770.842 204.249 770.565 204.435 770.22C204.624 769.872 204.718 769.489 204.718 769.072V767.968C204.652 768.031 204.541 768.087 204.385 768.137C204.233 768.187 204.056 768.232 203.853 768.271C203.654 768.308 203.456 768.339 203.257 768.366C203.058 768.392 202.879 768.415 202.72 768.435C202.289 768.488 201.921 768.571 201.616 768.684C201.311 768.797 201.078 768.952 200.915 769.151C200.753 769.347 200.672 769.599 200.672 769.907C200.672 770.371 200.837 770.731 201.169 770.986C201.5 771.238 201.916 771.364 202.417 771.364ZM210.94 772.159C210.258 772.159 209.663 771.988 209.156 771.647C208.652 771.306 208.261 770.838 207.982 770.245C207.704 769.652 207.565 768.976 207.565 768.217C207.565 767.451 207.705 766.77 207.987 766.173C208.272 765.577 208.667 765.109 209.17 764.771C209.674 764.43 210.259 764.259 210.925 764.259C211.436 764.259 211.898 764.359 212.312 764.558C212.727 764.753 213.068 765.03 213.337 765.388C213.608 765.742 213.779 766.157 213.849 766.631H212.954C212.861 766.2 212.637 765.832 212.283 765.527C211.931 765.219 211.484 765.065 210.94 765.065C210.453 765.065 210.022 765.197 209.648 765.462C209.273 765.724 208.98 766.09 208.768 766.561C208.559 767.028 208.455 767.57 208.455 768.187C208.455 768.807 208.557 769.355 208.763 769.832C208.968 770.306 209.257 770.678 209.628 770.946C210.002 771.214 210.44 771.349 210.94 771.349C211.278 771.349 211.587 771.286 211.865 771.16C212.147 771.031 212.382 770.848 212.571 770.613C212.763 770.378 212.893 770.098 212.959 769.773H213.854C213.787 770.233 213.623 770.644 213.362 771.006C213.103 771.364 212.767 771.645 212.352 771.851C211.941 772.056 211.471 772.159 210.94 772.159ZM218.733 772.159C218.051 772.159 217.456 771.988 216.949 771.647C216.445 771.306 216.054 770.838 215.775 770.245C215.497 769.652 215.358 768.976 215.358 768.217C215.358 767.451 215.498 766.77 215.78 766.173C216.065 765.577 216.46 765.109 216.963 764.771C217.467 764.43 218.052 764.259 218.718 764.259C219.229 764.259 219.691 764.359 220.105 764.558C220.52 764.753 220.861 765.03 221.13 765.388C221.401 765.742 221.572 766.157 221.642 766.631H220.747C220.654 766.2 220.43 765.832 220.076 765.527C219.724 765.219 219.277 765.065 218.733 765.065C218.246 765.065 217.815 765.197 217.441 765.462C217.066 765.724 216.773 766.09 216.561 766.561C216.352 767.028 216.248 767.57 216.248 768.187C216.248 768.807 216.35 769.355 216.556 769.832C216.761 770.306 217.05 770.678 217.421 770.946C217.795 771.214 218.233 771.349 218.733 771.349C219.071 771.349 219.38 771.286 219.658 771.16C219.94 771.031 220.175 770.848 220.364 770.613C220.556 770.378 220.685 770.098 220.752 769.773H221.647C221.58 770.233 221.416 770.644 221.154 771.006C220.896 771.364 220.56 771.645 220.145 771.851C219.734 772.056 219.264 772.159 218.733 772.159ZM226.511 772.159C225.852 772.159 225.268 771.992 224.761 771.657C224.258 771.322 223.863 770.86 223.578 770.27C223.293 769.677 223.151 768.992 223.151 768.217C223.151 767.434 223.293 766.747 223.578 766.153C223.863 765.557 224.258 765.093 224.761 764.761C225.268 764.427 225.852 764.259 226.511 764.259C227.171 764.259 227.753 764.427 228.256 764.761C228.76 765.096 229.155 765.56 229.44 766.153C229.728 766.747 229.872 767.434 229.872 768.217C229.872 768.992 229.73 769.677 229.445 770.27C229.16 770.86 228.763 771.322 228.256 771.657C227.753 771.992 227.171 772.159 226.511 772.159ZM226.511 771.349C227.042 771.349 227.491 771.206 227.859 770.921C228.227 770.636 228.505 770.257 228.694 769.783C228.886 769.309 228.982 768.787 228.982 768.217C228.982 767.647 228.886 767.123 228.694 766.646C228.505 766.168 228.227 765.786 227.859 765.497C227.491 765.209 227.042 765.065 226.511 765.065C225.984 765.065 225.535 765.209 225.164 765.497C224.796 765.786 224.516 766.168 224.324 766.646C224.135 767.123 224.04 767.647 224.04 768.217C224.04 768.787 224.135 769.309 224.324 769.783C224.516 770.257 224.796 770.636 225.164 770.921C225.532 771.206 225.981 771.349 226.511 771.349ZM236.667 769.082V764.364H237.552V772H236.667V770.732H236.597C236.419 771.123 236.135 771.45 235.747 771.712C235.36 771.97 234.886 772.099 234.325 772.099C233.838 772.099 233.406 771.993 233.028 771.781C232.65 771.566 232.353 771.251 232.138 770.837C231.923 770.422 231.815 769.914 231.815 769.31V764.364H232.7V769.256C232.7 769.852 232.875 770.333 233.227 770.697C233.578 771.059 234.029 771.239 234.579 771.239C234.924 771.239 235.255 771.156 235.573 770.991C235.892 770.825 236.153 770.583 236.359 770.265C236.564 769.943 236.667 769.549 236.667 769.082ZM240.78 767.227V772H239.895V764.364H240.755V765.562H240.835C241.013 765.171 241.292 764.857 241.67 764.622C242.051 764.384 242.522 764.264 243.082 764.264C243.595 764.264 244.046 764.372 244.434 764.587C244.825 764.799 245.128 765.113 245.344 765.527C245.562 765.941 245.672 766.45 245.672 767.053V772H244.787V767.108C244.787 766.482 244.611 765.986 244.26 765.621C243.912 765.257 243.445 765.075 242.858 765.075C242.457 765.075 242.101 765.161 241.789 765.333C241.478 765.505 241.231 765.754 241.048 766.079C240.869 766.4 240.78 766.783 240.78 767.227ZM251.01 764.364V765.134H247.366V764.364H251.01ZM248.504 762.534H249.394V770.006C249.394 770.325 249.449 770.575 249.558 770.757C249.668 770.936 249.81 771.064 249.986 771.14C250.162 771.213 250.349 771.249 250.548 771.249C250.664 771.249 250.763 771.243 250.846 771.229C250.929 771.213 251.002 771.196 251.065 771.18L251.254 771.98C251.168 772.013 251.061 772.043 250.936 772.07C250.81 772.099 250.654 772.114 250.468 772.114C250.143 772.114 249.83 772.043 249.529 771.901C249.23 771.758 248.985 771.546 248.793 771.264C248.601 770.982 248.504 770.633 248.504 770.215V762.534ZM254.556 769.082V768.813C254.559 768.29 254.617 767.864 254.73 767.536C254.843 767.207 255.009 766.931 255.227 766.705C255.449 766.477 255.724 766.258 256.053 766.049C256.298 765.89 256.503 765.723 256.669 765.547C256.838 765.368 256.966 765.172 257.052 764.96C257.141 764.745 257.186 764.511 257.186 764.259C257.186 763.901 257.102 763.588 256.933 763.32C256.767 763.051 256.541 762.844 256.256 762.698C255.971 762.549 255.655 762.474 255.307 762.474C254.975 762.474 254.665 762.547 254.377 762.693C254.092 762.836 253.858 763.048 253.676 763.33C253.497 763.608 253.399 763.953 253.383 764.364H252.443C252.46 763.817 252.596 763.343 252.851 762.942C253.106 762.541 253.447 762.231 253.875 762.012C254.303 761.79 254.78 761.679 255.307 761.679C255.857 761.679 256.341 761.793 256.759 762.022C257.176 762.247 257.503 762.557 257.738 762.952C257.973 763.343 258.091 763.792 258.091 764.299C258.091 764.634 258.038 764.939 257.932 765.214C257.826 765.489 257.667 765.742 257.455 765.974C257.246 766.206 256.984 766.425 256.669 766.631C256.371 766.83 256.134 767.027 255.958 767.222C255.782 767.418 255.656 767.642 255.58 767.893C255.504 768.142 255.463 768.449 255.456 768.813V769.082H254.556ZM255.033 772.075C254.838 772.075 254.669 772.005 254.526 771.866C254.387 771.723 254.317 771.554 254.317 771.359C254.317 771.16 254.387 770.991 254.526 770.852C254.669 770.712 254.838 770.643 255.033 770.643C255.229 770.643 255.396 770.712 255.536 770.852C255.678 770.991 255.749 771.16 255.749 771.359C255.749 771.488 255.716 771.607 255.65 771.717C255.587 771.826 255.501 771.914 255.391 771.98C255.285 772.043 255.166 772.075 255.033 772.075Z" fill="#C4C4C4"/>
<path d="M106 774.784H258.817V775.739H106V774.784Z" fill="#C4C4C4"/>
<path d="M21.3523 661V650.818H27.2436V651.653H22.282V655.487H26.7812V656.322H22.282V661H21.3523ZM31.7789 661.159C31.1194 661.159 30.536 660.992 30.0289 660.657C29.5252 660.322 29.1307 659.86 28.8457 659.27C28.5607 658.677 28.4181 657.992 28.4181 657.217C28.4181 656.434 28.5607 655.747 28.8457 655.153C29.1307 654.557 29.5252 654.093 30.0289 653.761C30.536 653.427 31.1194 653.259 31.7789 653.259C32.4385 653.259 33.0202 653.427 33.524 653.761C34.0278 654.096 34.4222 654.56 34.7072 655.153C34.9956 655.747 35.1397 656.434 35.1397 657.217C35.1397 657.992 34.9972 658.677 34.7122 659.27C34.4271 659.86 34.0311 660.322 33.524 660.657C33.0202 660.992 32.4385 661.159 31.7789 661.159ZM31.7789 660.349C32.3092 660.349 32.7583 660.206 33.1262 659.921C33.4941 659.636 33.7725 659.257 33.9615 658.783C34.1537 658.309 34.2498 657.787 34.2498 657.217C34.2498 656.647 34.1537 656.123 33.9615 655.646C33.7725 655.168 33.4941 654.786 33.1262 654.497C32.7583 654.209 32.3092 654.065 31.7789 654.065C31.252 654.065 30.8029 654.209 30.4316 654.497C30.0637 654.786 29.7837 655.168 29.5914 655.646C29.4025 656.123 29.3081 656.647 29.3081 657.217C29.3081 657.787 29.4025 658.309 29.5914 658.783C29.7837 659.257 30.0637 659.636 30.4316 659.921C30.7995 660.206 31.2486 660.349 31.7789 660.349ZM37.0824 661V653.364H37.9425V654.537H38.0071C38.1596 654.152 38.4247 653.843 38.8026 653.607C39.1837 653.369 39.6146 653.249 40.0952 653.249C40.1681 653.249 40.2493 653.251 40.3388 653.254C40.4283 653.258 40.5028 653.261 40.5625 653.264V654.164C40.5227 654.157 40.4531 654.147 40.3537 654.134C40.2543 654.121 40.1465 654.114 40.0305 654.114C39.6328 654.114 39.2782 654.199 38.9666 654.368C38.6584 654.534 38.4148 654.764 38.2358 655.059C38.0568 655.354 37.9673 655.69 37.9673 656.068V661H37.0824ZM44.7536 664.023C44.2332 664.023 43.7775 663.955 43.3864 663.819C42.9953 663.686 42.6655 663.504 42.397 663.272C42.1286 663.04 41.9197 662.78 41.7706 662.491L42.4964 662.014C42.6058 662.206 42.7517 662.395 42.9339 662.581C43.1196 662.767 43.3598 662.921 43.6548 663.043C43.9531 663.166 44.3194 663.227 44.7536 663.227C45.4297 663.227 45.9749 663.058 46.3892 662.72C46.8068 662.382 47.0156 661.857 47.0156 661.144V659.424H46.9361C46.8333 659.656 46.6858 659.888 46.4936 660.12C46.3014 660.349 46.0495 660.539 45.7379 660.692C45.4297 660.844 45.0469 660.92 44.5895 660.92C43.9796 660.92 43.4377 660.77 42.9638 660.468C42.4931 660.166 42.1219 659.736 41.8501 659.175C41.5817 658.612 41.4474 657.941 41.4474 657.162C41.4474 656.39 41.5784 655.71 41.8402 655.124C42.1054 654.537 42.4749 654.08 42.9489 653.751C43.4228 653.423 43.9747 653.259 44.6044 653.259C45.0717 653.259 45.4595 653.342 45.7678 653.508C46.076 653.67 46.3229 653.872 46.5085 654.114C46.6974 654.356 46.8449 654.592 46.951 654.82H47.0405V653.364H47.9055V661.199C47.9055 661.845 47.768 662.377 47.4929 662.795C47.2178 663.212 46.8433 663.521 46.3693 663.719C45.8954 663.922 45.3568 664.023 44.7536 664.023ZM44.6939 660.11C45.1844 660.11 45.6037 659.992 45.9517 659.757C46.2997 659.518 46.5665 659.177 46.7521 658.733C46.9377 658.289 47.0305 657.76 47.0305 657.147C47.0305 656.55 46.9394 656.022 46.7571 655.561C46.5748 655.097 46.3097 654.732 45.9616 654.467C45.617 654.199 45.1944 654.065 44.6939 654.065C44.1835 654.065 43.7526 654.202 43.4013 654.477C43.05 654.752 42.7848 655.124 42.6058 655.591C42.4268 656.055 42.3374 656.574 42.3374 657.147C42.3374 657.73 42.4285 658.246 42.6108 658.693C42.7931 659.137 43.0599 659.485 43.4112 659.737C43.7625 659.986 44.1901 660.11 44.6939 660.11ZM53.2164 661.159C52.5569 661.159 51.9735 660.992 51.4664 660.657C50.9627 660.322 50.5682 659.86 50.2832 659.27C49.9982 658.677 49.8556 657.992 49.8556 657.217C49.8556 656.434 49.9982 655.747 50.2832 655.153C50.5682 654.557 50.9627 654.093 51.4664 653.761C51.9735 653.427 52.5569 653.259 53.2164 653.259C53.876 653.259 54.4577 653.427 54.9615 653.761C55.4653 654.096 55.8597 654.56 56.1447 655.153C56.4331 655.747 56.5772 656.434 56.5772 657.217C56.5772 657.992 56.4347 658.677 56.1497 659.27C55.8646 659.86 55.4686 660.322 54.9615 660.657C54.4577 660.992 53.876 661.159 53.2164 661.159ZM53.2164 660.349C53.7467 660.349 54.1958 660.206 54.5637 659.921C54.9316 659.636 55.21 659.257 55.399 658.783C55.5912 658.309 55.6873 657.787 55.6873 657.217C55.6873 656.647 55.5912 656.123 55.399 655.646C55.21 655.168 54.9316 654.786 54.5637 654.497C54.1958 654.209 53.7467 654.065 53.2164 654.065C52.6895 654.065 52.2404 654.209 51.8691 654.497C51.5012 654.786 51.2212 655.168 51.0289 655.646C50.84 656.123 50.7456 656.647 50.7456 657.217C50.7456 657.787 50.84 658.309 51.0289 658.783C51.2212 659.257 51.5012 659.636 51.8691 659.921C52.237 660.206 52.6861 660.349 53.2164 660.349ZM61.5277 653.364V654.134H57.8835V653.364H61.5277ZM59.022 651.534H59.9119V659.006C59.9119 659.325 59.9666 659.575 60.076 659.757C60.1854 659.936 60.3279 660.064 60.5036 660.14C60.6792 660.213 60.8665 660.249 61.0653 660.249C61.1813 660.249 61.2808 660.243 61.3636 660.229C61.4465 660.213 61.5194 660.196 61.5824 660.18L61.7713 660.98C61.6851 661.013 61.5791 661.043 61.4531 661.07C61.3272 661.099 61.1714 661.114 60.9858 661.114C60.661 661.114 60.3478 661.043 60.0462 660.901C59.7479 660.758 59.5026 660.546 59.3104 660.264C59.1181 659.982 59.022 659.633 59.022 659.215V651.534ZM68.0914 663.864C67.9158 663.864 67.7517 663.847 67.5993 663.814C67.4468 663.781 67.3258 663.744 67.2363 663.705L67.475 662.924C67.7766 663.017 68.045 663.05 68.2804 663.023C68.5157 663 68.7245 662.894 68.9068 662.705C69.0891 662.52 69.2515 662.235 69.394 661.85L69.6724 661.075L66.8635 653.364H67.823L70.09 659.832H70.1596L72.4267 653.364H73.3862L70.1547 662.208C70.0188 662.576 69.8514 662.883 69.6525 663.128C69.4537 663.376 69.2233 663.56 68.9615 663.68C68.7029 663.802 68.4129 663.864 68.0914 663.864ZM77.8121 661.159C77.1526 661.159 76.5692 660.992 76.0621 660.657C75.5584 660.322 75.1639 659.86 74.8789 659.27C74.5939 658.677 74.4513 657.992 74.4513 657.217C74.4513 656.434 74.5939 655.747 74.8789 655.153C75.1639 654.557 75.5584 654.093 76.0621 653.761C76.5692 653.427 77.1526 653.259 77.8121 653.259C78.4717 653.259 79.0534 653.427 79.5572 653.761C80.061 654.096 80.4554 654.56 80.7404 655.153C81.0288 655.747 81.1729 656.434 81.1729 657.217C81.1729 657.992 81.0304 658.677 80.7454 659.27C80.4603 659.86 80.0643 660.322 79.5572 660.657C79.0534 660.992 78.4717 661.159 77.8121 661.159ZM77.8121 660.349C78.3424 660.349 78.7915 660.206 79.1594 659.921C79.5273 659.636 79.8058 659.257 79.9947 658.783C80.1869 658.309 80.283 657.787 80.283 657.217C80.283 656.647 80.1869 656.123 79.9947 655.646C79.8058 655.168 79.5273 654.786 79.1594 654.497C78.7915 654.209 78.3424 654.065 77.8121 654.065C77.2852 654.065 76.8361 654.209 76.4648 654.497C76.0969 654.786 75.8169 655.168 75.6246 655.646C75.4357 656.123 75.3413 656.647 75.3413 657.217C75.3413 657.787 75.4357 658.309 75.6246 658.783C75.8169 659.257 76.0969 659.636 76.4648 659.921C76.8327 660.206 77.2818 660.349 77.8121 660.349ZM87.9679 658.082V653.364H88.8528V661H87.9679V659.732H87.8983C87.7193 660.123 87.4359 660.45 87.0481 660.712C86.6603 660.97 86.1864 661.099 85.6262 661.099C85.139 661.099 84.7065 660.993 84.3287 660.781C83.9508 660.566 83.6542 660.251 83.4387 659.837C83.2233 659.422 83.1156 658.914 83.1156 658.31V653.364H84.0005V658.256C84.0005 658.852 84.1762 659.333 84.5275 659.697C84.8788 660.059 85.3296 660.239 85.8798 660.239C86.2245 660.239 86.5559 660.156 86.8741 659.991C87.1923 659.825 87.4541 659.583 87.6596 659.265C87.8651 658.943 87.9679 658.549 87.9679 658.082ZM91.1957 661V653.364H92.0558V654.537H92.1204C92.2728 654.152 92.538 653.843 92.9158 653.607C93.297 653.369 93.7279 653.249 94.2085 653.249C94.2814 653.249 94.3626 653.251 94.4521 653.254C94.5415 653.258 94.6161 653.261 94.6758 653.264V654.164C94.636 654.157 94.5664 654.147 94.467 654.134C94.3675 654.121 94.2598 654.114 94.1438 654.114C93.7461 654.114 93.3915 654.199 93.0799 654.368C92.7717 654.534 92.5281 654.764 92.3491 655.059C92.1701 655.354 92.0806 655.69 92.0806 656.068V661H91.1957ZM100.123 663.864V653.364H100.983V654.82H101.088C101.194 654.592 101.34 654.358 101.525 654.119C101.711 653.877 101.956 653.674 102.261 653.508C102.569 653.342 102.957 653.259 103.425 653.259C104.054 653.259 104.604 653.425 105.075 653.756C105.549 654.085 105.917 654.545 106.179 655.138C106.444 655.728 106.577 656.416 106.577 657.202C106.577 657.991 106.444 658.682 106.179 659.275C105.917 659.868 105.549 660.33 105.075 660.662C104.604 660.993 104.058 661.159 103.434 661.159C102.974 661.159 102.588 661.076 102.276 660.911C101.968 660.745 101.718 660.541 101.525 660.299C101.336 660.054 101.191 659.815 101.088 659.583H101.008V663.864H100.123ZM100.998 657.187C100.998 657.803 101.09 658.35 101.272 658.827C101.457 659.301 101.723 659.674 102.067 659.946C102.415 660.214 102.836 660.349 103.33 660.349C103.837 660.349 104.265 660.21 104.613 659.931C104.964 659.649 105.231 659.27 105.413 658.793C105.599 658.315 105.692 657.78 105.692 657.187C105.692 656.6 105.6 656.071 105.418 655.601C105.239 655.13 104.974 654.757 104.623 654.482C104.271 654.204 103.84 654.065 103.33 654.065C102.833 654.065 102.41 654.199 102.062 654.467C101.714 654.732 101.449 655.1 101.267 655.571C101.088 656.038 100.998 656.577 100.998 657.187ZM110.651 661.174C110.19 661.174 109.769 661.085 109.388 660.906C109.007 660.723 108.704 660.461 108.478 660.12C108.253 659.775 108.14 659.358 108.14 658.867C108.14 658.489 108.211 658.171 108.354 657.913C108.496 657.654 108.699 657.442 108.96 657.276C109.222 657.111 109.532 656.98 109.89 656.884C110.248 656.787 110.642 656.713 111.073 656.66C111.501 656.607 111.862 656.56 112.157 656.521C112.455 656.481 112.682 656.418 112.838 656.332C112.994 656.246 113.072 656.106 113.072 655.914V655.735C113.072 655.215 112.916 654.805 112.605 654.507C112.296 654.205 111.852 654.055 111.272 654.055C110.722 654.055 110.273 654.176 109.925 654.418C109.58 654.66 109.338 654.945 109.199 655.273L108.359 654.969C108.531 654.552 108.77 654.219 109.075 653.97C109.38 653.718 109.721 653.538 110.099 653.428C110.477 653.316 110.86 653.259 111.247 653.259C111.539 653.259 111.842 653.297 112.157 653.374C112.475 653.45 112.77 653.582 113.042 653.771C113.314 653.957 113.534 654.217 113.703 654.552C113.872 654.883 113.957 655.304 113.957 655.815V661H113.072V659.792H113.017C112.911 660.017 112.754 660.236 112.545 660.448C112.336 660.66 112.074 660.834 111.759 660.97C111.445 661.106 111.075 661.174 110.651 661.174ZM110.77 660.364C111.241 660.364 111.648 660.259 111.993 660.05C112.338 659.842 112.603 659.565 112.789 659.22C112.977 658.872 113.072 658.489 113.072 658.072V656.968C113.006 657.031 112.895 657.087 112.739 657.137C112.586 657.187 112.409 657.232 112.207 657.271C112.008 657.308 111.809 657.339 111.61 657.366C111.411 657.392 111.232 657.415 111.073 657.435C110.642 657.488 110.275 657.571 109.97 657.684C109.665 657.797 109.431 657.952 109.269 658.151C109.106 658.347 109.025 658.599 109.025 658.907C109.025 659.371 109.191 659.731 109.522 659.986C109.854 660.238 110.27 660.364 110.77 660.364ZM121.442 655.039L120.631 655.268C120.552 655.039 120.439 654.832 120.293 654.646C120.147 654.461 119.957 654.313 119.721 654.204C119.489 654.094 119.201 654.04 118.856 654.04C118.339 654.04 117.915 654.162 117.584 654.408C117.252 654.653 117.086 654.969 117.086 655.357C117.086 655.685 117.199 655.952 117.425 656.158C117.653 656.36 118.005 656.521 118.479 656.64L119.632 656.923C120.272 657.079 120.751 657.326 121.069 657.664C121.39 658.002 121.551 658.426 121.551 658.937C121.551 659.368 121.432 659.75 121.193 660.085C120.954 660.42 120.621 660.683 120.194 660.876C119.769 661.065 119.277 661.159 118.717 661.159C117.971 661.159 117.357 660.992 116.873 660.657C116.389 660.319 116.079 659.832 115.943 659.195L116.793 658.987C116.903 659.441 117.116 659.784 117.434 660.016C117.756 660.248 118.179 660.364 118.702 660.364C119.289 660.364 119.758 660.233 120.109 659.971C120.461 659.706 120.636 659.374 120.636 658.977C120.636 658.668 120.533 658.41 120.328 658.201C120.122 657.989 119.811 657.833 119.393 657.734L118.145 657.435C117.483 657.276 116.992 657.024 116.674 656.68C116.356 656.335 116.197 655.907 116.197 655.397C116.197 654.976 116.311 654.607 116.54 654.288C116.768 653.967 117.083 653.715 117.484 653.533C117.885 653.35 118.343 653.259 118.856 653.259C119.556 653.259 120.114 653.418 120.532 653.737C120.953 654.051 121.256 654.486 121.442 655.039ZM128.619 655.039L127.809 655.268C127.729 655.039 127.617 654.832 127.471 654.646C127.325 654.461 127.134 654.313 126.899 654.204C126.667 654.094 126.379 654.04 126.034 654.04C125.517 654.04 125.093 654.162 124.761 654.408C124.43 654.653 124.264 654.969 124.264 655.357C124.264 655.685 124.377 655.952 124.602 656.158C124.831 656.36 125.182 656.521 125.656 656.64L126.81 656.923C127.449 657.079 127.928 657.326 128.246 657.664C128.568 658.002 128.729 658.426 128.729 658.937C128.729 659.368 128.609 659.75 128.371 660.085C128.132 660.42 127.799 660.683 127.371 660.876C126.947 661.065 126.455 661.159 125.895 661.159C125.149 661.159 124.534 660.992 124.05 660.657C123.567 660.319 123.257 659.832 123.121 659.195L123.971 658.987C124.08 659.441 124.294 659.784 124.612 660.016C124.934 660.248 125.356 660.364 125.88 660.364C126.467 660.364 126.936 660.233 127.287 659.971C127.638 659.706 127.814 659.374 127.814 658.977C127.814 658.668 127.711 658.41 127.506 658.201C127.3 657.989 126.989 657.833 126.571 657.734L125.323 657.435C124.66 657.276 124.17 657.024 123.852 656.68C123.533 656.335 123.374 655.907 123.374 655.397C123.374 654.976 123.489 654.607 123.717 654.288C123.946 653.967 124.261 653.715 124.662 653.533C125.063 653.35 125.52 653.259 126.034 653.259C126.733 653.259 127.292 653.418 127.71 653.737C128.13 654.051 128.434 654.486 128.619 655.039ZM132.362 661L130.055 653.364H130.99L132.799 659.663H132.864L134.669 653.364H135.608L137.398 659.648H137.468L139.277 653.364H140.212L137.905 661H136.99L135.181 654.741H135.086L133.276 661H132.362ZM144.64 661.159C143.981 661.159 143.397 660.992 142.89 660.657C142.386 660.322 141.992 659.86 141.707 659.27C141.422 658.677 141.279 657.992 141.279 657.217C141.279 656.434 141.422 655.747 141.707 655.153C141.992 654.557 142.386 654.093 142.89 653.761C143.397 653.427 143.981 653.259 144.64 653.259C145.3 653.259 145.882 653.427 146.385 653.761C146.889 654.096 147.283 654.56 147.569 655.153C147.857 655.747 148.001 656.434 148.001 657.217C148.001 657.992 147.859 658.677 147.574 659.27C147.288 659.86 146.892 660.322 146.385 660.657C145.882 660.992 145.3 661.159 144.64 661.159ZM144.64 660.349C145.171 660.349 145.62 660.206 145.988 659.921C146.355 659.636 146.634 659.257 146.823 658.783C147.015 658.309 147.111 657.787 147.111 657.217C147.111 656.647 147.015 656.123 146.823 655.646C146.634 655.168 146.355 654.786 145.988 654.497C145.62 654.209 145.171 654.065 144.64 654.065C144.113 654.065 143.664 654.209 143.293 654.497C142.925 654.786 142.645 655.168 142.453 655.646C142.264 656.123 142.169 656.647 142.169 657.217C142.169 657.787 142.264 658.309 142.453 658.783C142.645 659.257 142.925 659.636 143.293 659.921C143.661 660.206 144.11 660.349 144.64 660.349ZM149.944 661V653.364H150.804V654.537H150.868C151.021 654.152 151.286 653.843 151.664 653.607C152.045 653.369 152.476 653.249 152.956 653.249C153.029 653.249 153.111 653.251 153.2 653.254C153.29 653.258 153.364 653.261 153.424 653.264V654.164C153.384 654.157 153.314 654.147 153.215 654.134C153.116 654.121 153.008 654.114 152.892 654.114C152.494 654.114 152.14 654.199 151.828 654.368C151.52 654.534 151.276 654.764 151.097 655.059C150.918 655.354 150.829 655.69 150.829 656.068V661H149.944ZM157.451 661.159C156.824 661.159 156.276 660.993 155.805 660.662C155.335 660.33 154.967 659.868 154.702 659.275C154.44 658.682 154.309 657.991 154.309 657.202C154.309 656.416 154.44 655.728 154.702 655.138C154.967 654.545 155.336 654.085 155.81 653.756C156.284 653.425 156.836 653.259 157.466 653.259C157.93 653.259 158.316 653.342 158.624 653.508C158.932 653.67 159.179 653.872 159.365 654.114C159.55 654.356 159.695 654.592 159.797 654.82H159.877V650.818H160.767V661H159.902V659.583H159.797C159.695 659.815 159.549 660.054 159.36 660.299C159.171 660.541 158.921 660.745 158.609 660.911C158.301 661.076 157.915 661.159 157.451 661.159ZM157.555 660.349C158.049 660.349 158.47 660.214 158.818 659.946C159.166 659.674 159.431 659.301 159.613 658.827C159.799 658.35 159.892 657.803 159.892 657.187C159.892 656.577 159.801 656.038 159.618 655.571C159.436 655.1 159.171 654.732 158.823 654.467C158.475 654.199 158.052 654.065 157.555 654.065C157.045 654.065 156.614 654.204 156.263 654.482C155.915 654.757 155.649 655.13 155.467 655.601C155.288 656.071 155.199 656.6 155.199 657.187C155.199 657.78 155.29 658.315 155.472 658.793C155.654 659.27 155.92 659.649 156.268 659.931C156.619 660.21 157.048 660.349 157.555 660.349ZM164.824 658.082V657.813C164.827 657.29 164.885 656.864 164.998 656.536C165.11 656.207 165.276 655.931 165.495 655.705C165.717 655.477 165.992 655.258 166.32 655.049C166.565 654.89 166.771 654.723 166.937 654.547C167.106 654.368 167.233 654.172 167.319 653.96C167.409 653.745 167.454 653.511 167.454 653.259C167.454 652.901 167.369 652.588 167.2 652.32C167.034 652.051 166.809 651.844 166.524 651.698C166.239 651.549 165.922 651.474 165.574 651.474C165.243 651.474 164.933 651.547 164.645 651.693C164.36 651.836 164.126 652.048 163.944 652.33C163.765 652.608 163.667 652.953 163.65 653.364H162.711C162.727 652.817 162.863 652.343 163.118 651.942C163.374 651.541 163.715 651.231 164.143 651.012C164.57 650.79 165.047 650.679 165.574 650.679C166.125 650.679 166.608 650.793 167.026 651.022C167.444 651.247 167.77 651.557 168.006 651.952C168.241 652.343 168.358 652.792 168.358 653.299C168.358 653.634 168.305 653.939 168.199 654.214C168.093 654.489 167.934 654.742 167.722 654.974C167.513 655.206 167.251 655.425 166.937 655.631C166.638 655.83 166.401 656.027 166.226 656.222C166.05 656.418 165.924 656.642 165.848 656.893C165.772 657.142 165.73 657.449 165.724 657.813V658.082H164.824ZM165.301 661.075C165.105 661.075 164.936 661.005 164.794 660.866C164.655 660.723 164.585 660.554 164.585 660.359C164.585 660.16 164.655 659.991 164.794 659.852C164.936 659.712 165.105 659.643 165.301 659.643C165.497 659.643 165.664 659.712 165.803 659.852C165.946 659.991 166.017 660.16 166.017 660.359C166.017 660.488 165.984 660.607 165.917 660.717C165.854 660.826 165.768 660.914 165.659 660.98C165.553 661.043 165.434 661.075 165.301 661.075Z" fill="#C4C4C4"/>
<path d="M70.8239 458.545C70.8239 459.721 70.6037 460.728 70.1634 461.566C69.7266 462.4 69.13 463.039 68.3736 463.483C67.6207 463.927 66.7667 464.149 65.8114 464.149C64.8562 464.149 64.0004 463.927 63.244 463.483C62.4911 463.036 61.8945 462.395 61.4542 461.56C61.0174 460.722 60.799 459.717 60.799 458.545C60.799 457.37 61.0174 456.365 61.4542 455.531C61.8945 454.692 62.4911 454.051 63.244 453.608C64.0004 453.164 64.8562 452.942 65.8114 452.942C66.7667 452.942 67.6207 453.164 68.3736 453.608C69.13 454.051 69.7266 454.692 70.1634 455.531C70.6037 456.365 70.8239 457.37 70.8239 458.545ZM68.837 458.545C68.837 457.718 68.7074 457.02 68.4482 456.452C68.1925 455.88 67.8374 455.449 67.3828 455.158C66.9283 454.863 66.4045 454.716 65.8114 454.716C65.2184 454.716 64.6946 454.863 64.2401 455.158C63.7855 455.449 63.4286 455.88 63.1694 456.452C62.9137 457.02 62.7859 457.718 62.7859 458.545C62.7859 459.373 62.9137 460.072 63.1694 460.644C63.4286 461.212 63.7855 461.644 64.2401 461.939C64.6946 462.23 65.2184 462.375 65.8114 462.375C66.4045 462.375 66.9283 462.23 67.3828 461.939C67.8374 461.644 68.1925 461.212 68.4482 460.644C68.7074 460.072 68.837 459.373 68.837 458.545ZM72.607 464V455.818H74.4767V457.182H74.5619C74.711 456.71 74.9667 456.346 75.3289 456.09C75.6947 455.831 76.1119 455.701 76.5807 455.701C76.6872 455.701 76.8062 455.706 76.9376 455.717C77.0725 455.724 77.1844 455.737 77.2732 455.754V457.528C77.1915 457.5 77.0619 457.475 76.8843 457.453C76.7103 457.429 76.5416 457.416 76.3783 457.416C76.0267 457.416 75.7107 457.493 75.4301 457.645C75.1531 457.794 74.9347 458.002 74.7749 458.268C74.6151 458.535 74.5352 458.842 74.5352 459.19V464H72.607ZM81.7756 467.239C81.0831 467.239 80.4883 467.145 79.9911 466.956C79.494 466.772 79.0945 466.523 78.7926 466.211C78.4908 465.898 78.2812 465.552 78.1641 465.172L79.9006 464.751C79.9787 464.911 80.0923 465.069 80.2415 465.225C80.3906 465.385 80.5913 465.516 80.8434 465.619C81.0991 465.726 81.4205 465.779 81.8075 465.779C82.3544 465.779 82.8072 465.646 83.1658 465.38C83.5245 465.117 83.7038 464.684 83.7038 464.08V462.53H83.608C83.5085 462.729 83.3629 462.933 83.1712 463.142C82.983 463.352 82.7326 463.528 82.4201 463.67C82.1112 463.812 81.7223 463.883 81.2536 463.883C80.625 463.883 80.055 463.735 79.5437 463.441C79.0359 463.142 78.631 462.699 78.3292 462.109C78.0309 461.516 77.8817 460.774 77.8817 459.882C77.8817 458.984 78.0309 458.226 78.3292 457.608C78.631 456.987 79.0376 456.516 79.549 456.196C80.0604 455.873 80.6303 455.712 81.2589 455.712C81.7383 455.712 82.1325 455.793 82.4414 455.957C82.7539 456.116 83.0025 456.31 83.1871 456.537C83.3718 456.761 83.5121 456.972 83.608 457.171H83.7145V455.818H85.6161V464.133C85.6161 464.833 85.4492 465.412 85.1154 465.87C84.7816 466.328 84.3253 466.67 83.7464 466.898C83.1676 467.125 82.5107 467.239 81.7756 467.239ZM81.7915 462.37C82.1999 462.37 82.5479 462.271 82.8356 462.072C83.1232 461.873 83.3416 461.587 83.4908 461.214C83.6399 460.841 83.7145 460.394 83.7145 459.872C83.7145 459.357 83.6399 458.906 83.4908 458.519C83.3452 458.132 83.1286 457.832 82.8409 457.619C82.5568 457.402 82.207 457.294 81.7915 457.294C81.3619 457.294 81.0032 457.406 80.7156 457.629C80.4279 457.853 80.2113 458.16 80.0657 458.551C79.9201 458.938 79.8473 459.378 79.8473 459.872C79.8473 460.373 79.9201 460.811 80.0657 461.188C80.2148 461.56 80.4332 461.852 80.7209 462.061C81.0121 462.267 81.369 462.37 81.7915 462.37ZM89.9467 464.165C89.4283 464.165 88.9613 464.073 88.5458 463.888C88.1339 463.7 87.8072 463.423 87.5657 463.057C87.3278 462.691 87.2088 462.24 87.2088 461.704C87.2088 461.243 87.294 460.861 87.4645 460.559C87.6349 460.257 87.8675 460.016 88.1623 459.835C88.457 459.653 88.7891 459.517 89.1584 459.424C89.5313 459.328 89.9165 459.259 90.3143 459.217C90.7937 459.167 91.1825 459.123 91.4808 459.083C91.7791 459.041 91.9957 458.977 92.1307 458.892C92.2692 458.803 92.3384 458.666 92.3384 458.482V458.45C92.3384 458.048 92.2195 457.738 91.9815 457.517C91.7436 457.297 91.4009 457.187 90.9535 457.187C90.4812 457.187 90.1065 457.29 89.8295 457.496C89.5561 457.702 89.3714 457.945 89.2756 458.226L87.4751 457.97C87.6172 457.473 87.8516 457.058 88.1783 456.724C88.505 456.386 88.9045 456.134 89.3768 455.967C89.8491 455.797 90.3711 455.712 90.9428 455.712C91.337 455.712 91.7294 455.758 92.12 455.85C92.5107 455.942 92.8675 456.095 93.1907 456.308C93.5138 456.518 93.7731 456.804 93.9684 457.166C94.1673 457.528 94.2667 457.981 94.2667 458.524V464H92.413V462.876H92.3491C92.2319 463.103 92.0668 463.316 91.8537 463.515C91.6442 463.711 91.3796 463.869 91.06 463.989C90.744 464.107 90.3729 464.165 89.9467 464.165ZM90.4474 462.748C90.8345 462.748 91.1701 462.672 91.4542 462.519C91.7383 462.363 91.9567 462.157 92.1094 461.901C92.2656 461.646 92.3438 461.367 92.3438 461.065V460.101C92.2834 460.151 92.1804 460.197 92.0348 460.239C91.8928 460.282 91.733 460.319 91.5554 460.351C91.3778 460.383 91.2021 460.412 91.0281 460.436C90.854 460.461 90.7031 460.483 90.5753 460.5C90.2876 460.539 90.0302 460.603 89.8029 460.692C89.5756 460.781 89.3963 460.905 89.2649 461.065C89.1335 461.221 89.0678 461.424 89.0678 461.672C89.0678 462.027 89.1974 462.295 89.4567 462.477C89.7159 462.658 90.0462 462.748 90.4474 462.748ZM98.1339 459.206V464H96.2056V455.818H98.0487V457.208H98.1445C98.3327 456.75 98.6328 456.386 99.0447 456.116C99.4602 455.847 99.9734 455.712 100.584 455.712C101.149 455.712 101.641 455.832 102.06 456.074C102.482 456.315 102.809 456.665 103.04 457.123C103.274 457.581 103.39 458.137 103.386 458.79V464H101.458V459.089C101.458 458.542 101.316 458.114 101.032 457.805C100.751 457.496 100.362 457.342 99.8651 457.342C99.5277 457.342 99.2276 457.416 98.9648 457.565C98.7056 457.711 98.5014 457.922 98.3523 458.199C98.2067 458.476 98.1339 458.812 98.1339 459.206ZM105.346 464V455.818H107.275V464H105.346ZM106.316 454.657C106.01 454.657 105.748 454.556 105.527 454.353C105.307 454.147 105.197 453.901 105.197 453.613C105.197 453.322 105.307 453.075 105.527 452.873C105.748 452.667 106.01 452.564 106.316 452.564C106.625 452.564 106.887 452.667 107.104 452.873C107.324 453.075 107.434 453.322 107.434 453.613C107.434 453.901 107.324 454.147 107.104 454.353C106.887 454.556 106.625 454.657 106.316 454.657ZM109.151 464V462.775L113.37 457.485V457.416H109.289V455.818H115.729V457.134L111.713 462.333V462.402H115.868V464H109.151ZM121.068 464.16C120.248 464.16 119.539 463.989 118.943 463.648C118.35 463.304 117.893 462.817 117.574 462.189C117.254 461.557 117.094 460.813 117.094 459.957C117.094 459.115 117.254 458.377 117.574 457.741C117.897 457.102 118.348 456.605 118.927 456.25C119.506 455.891 120.186 455.712 120.967 455.712C121.471 455.712 121.947 455.793 122.394 455.957C122.845 456.116 123.243 456.365 123.588 456.702C123.936 457.04 124.209 457.469 124.408 457.991C124.607 458.51 124.706 459.128 124.706 459.845V460.436H118V459.137H122.858C122.854 458.767 122.774 458.439 122.618 458.151C122.462 457.86 122.243 457.631 121.963 457.464C121.686 457.297 121.363 457.214 120.993 457.214C120.599 457.214 120.253 457.31 119.955 457.501C119.656 457.69 119.424 457.938 119.257 458.247C119.094 458.553 119.01 458.888 119.007 459.254V460.388C119.007 460.864 119.094 461.273 119.268 461.614C119.442 461.951 119.685 462.21 119.997 462.391C120.31 462.569 120.676 462.658 121.095 462.658C121.375 462.658 121.629 462.619 121.856 462.54C122.084 462.459 122.281 462.34 122.448 462.184C122.615 462.027 122.741 461.834 122.826 461.603L124.626 461.805C124.513 462.281 124.296 462.697 123.976 463.052C123.66 463.403 123.256 463.677 122.762 463.872C122.268 464.064 121.704 464.16 121.068 464.16ZM131.257 467.068C130.994 467.068 130.751 467.047 130.527 467.004C130.307 466.965 130.131 466.919 130 466.866L130.447 465.364C130.728 465.445 130.978 465.484 131.198 465.481C131.418 465.477 131.612 465.408 131.779 465.273C131.949 465.142 132.093 464.922 132.21 464.613L132.375 464.17L129.408 455.818H131.454L133.339 461.997H133.425L135.316 455.818H137.366L134.09 464.991C133.938 465.424 133.735 465.795 133.483 466.104C133.231 466.417 132.922 466.654 132.556 466.818C132.194 466.985 131.761 467.068 131.257 467.068ZM141.991 464.16C141.192 464.16 140.5 463.984 139.914 463.632C139.328 463.281 138.873 462.789 138.55 462.157C138.231 461.525 138.071 460.786 138.071 459.941C138.071 459.096 138.231 458.355 138.55 457.72C138.873 457.084 139.328 456.591 139.914 456.239C140.5 455.887 141.192 455.712 141.991 455.712C142.79 455.712 143.483 455.887 144.069 456.239C144.655 456.591 145.107 457.084 145.427 457.72C145.75 458.355 145.912 459.096 145.912 459.941C145.912 460.786 145.75 461.525 145.427 462.157C145.107 462.789 144.655 463.281 144.069 463.632C143.483 463.984 142.79 464.16 141.991 464.16ZM142.002 462.615C142.435 462.615 142.797 462.496 143.089 462.258C143.38 462.017 143.596 461.694 143.738 461.289C143.884 460.884 143.957 460.433 143.957 459.936C143.957 459.435 143.884 458.982 143.738 458.577C143.596 458.169 143.38 457.844 143.089 457.603C142.797 457.361 142.435 457.24 142.002 457.24C141.558 457.24 141.189 457.361 140.894 457.603C140.603 457.844 140.384 458.169 140.239 458.577C140.097 458.982 140.026 459.435 140.026 459.936C140.026 460.433 140.097 460.884 140.239 461.289C140.384 461.694 140.603 462.017 140.894 462.258C141.189 462.496 141.558 462.615 142.002 462.615ZM152.763 460.559V455.818H154.691V464H152.822V462.546H152.737C152.552 463.004 152.248 463.379 151.826 463.67C151.407 463.961 150.89 464.107 150.276 464.107C149.739 464.107 149.265 463.988 148.853 463.75C148.445 463.508 148.125 463.158 147.895 462.7C147.664 462.239 147.548 461.681 147.548 461.028V455.818H149.477V460.729C149.477 461.248 149.619 461.66 149.903 461.965C150.187 462.271 150.56 462.423 151.021 462.423C151.305 462.423 151.581 462.354 151.847 462.216C152.113 462.077 152.332 461.871 152.502 461.598C152.676 461.321 152.763 460.974 152.763 460.559ZM156.674 464V455.818H158.544V457.182H158.629C158.778 456.71 159.034 456.346 159.396 456.09C159.762 455.831 160.179 455.701 160.648 455.701C160.755 455.701 160.874 455.706 161.005 455.717C161.14 455.724 161.252 455.737 161.341 455.754V457.528C161.259 457.5 161.129 457.475 160.952 457.453C160.778 457.429 160.609 457.416 160.446 457.416C160.094 457.416 159.778 457.493 159.498 457.645C159.221 457.794 159.002 458.002 158.842 458.268C158.683 458.535 158.603 458.842 158.603 459.19V464H156.674ZM170.428 455.818V457.31H165.724V455.818H170.428ZM166.886 453.858H168.814V461.539C168.814 461.798 168.853 461.997 168.931 462.136C169.013 462.271 169.119 462.363 169.251 462.413C169.382 462.462 169.528 462.487 169.688 462.487C169.808 462.487 169.918 462.478 170.018 462.461C170.121 462.443 170.199 462.427 170.252 462.413L170.577 463.92C170.474 463.956 170.327 463.995 170.135 464.037C169.947 464.08 169.716 464.105 169.442 464.112C168.96 464.126 168.525 464.053 168.137 463.893C167.75 463.73 167.443 463.478 167.216 463.137C166.992 462.796 166.882 462.37 166.886 461.859V453.858ZM174.395 464.165C173.877 464.165 173.41 464.073 172.994 463.888C172.582 463.7 172.255 463.423 172.014 463.057C171.776 462.691 171.657 462.24 171.657 461.704C171.657 461.243 171.742 460.861 171.913 460.559C172.083 460.257 172.316 460.016 172.611 459.835C172.905 459.653 173.237 459.517 173.607 459.424C173.979 459.328 174.365 459.259 174.763 459.217C175.242 459.167 175.631 459.123 175.929 459.083C176.227 459.041 176.444 458.977 176.579 458.892C176.717 458.803 176.787 458.666 176.787 458.482V458.45C176.787 458.048 176.668 457.738 176.43 457.517C176.192 457.297 175.849 457.187 175.402 457.187C174.929 457.187 174.555 457.29 174.278 457.496C174.004 457.702 173.82 457.945 173.724 458.226L171.923 457.97C172.065 457.473 172.3 457.058 172.627 456.724C172.953 456.386 173.353 456.134 173.825 455.967C174.297 455.797 174.819 455.712 175.391 455.712C175.785 455.712 176.178 455.758 176.568 455.85C176.959 455.942 177.316 456.095 177.639 456.308C177.962 456.518 178.221 456.804 178.417 457.166C178.616 457.528 178.715 457.981 178.715 458.524V464H176.861V462.876H176.797C176.68 463.103 176.515 463.316 176.302 463.515C176.092 463.711 175.828 463.869 175.508 463.989C175.192 464.107 174.821 464.165 174.395 464.165ZM174.896 462.748C175.283 462.748 175.618 462.672 175.902 462.519C176.187 462.363 176.405 462.157 176.558 461.901C176.714 461.646 176.792 461.367 176.792 461.065V460.101C176.732 460.151 176.629 460.197 176.483 460.239C176.341 460.282 176.181 460.319 176.004 460.351C175.826 460.383 175.65 460.412 175.476 460.436C175.302 460.461 175.151 460.483 175.024 460.5C174.736 460.539 174.478 460.603 174.251 460.692C174.024 460.781 173.845 460.905 173.713 461.065C173.582 461.221 173.516 461.424 173.516 461.672C173.516 462.027 173.646 462.295 173.905 462.477C174.164 462.658 174.494 462.748 174.896 462.748ZM187.12 457.981L185.363 458.173C185.313 457.995 185.226 457.828 185.102 457.672C184.981 457.516 184.818 457.39 184.612 457.294C184.406 457.198 184.153 457.15 183.855 457.15C183.454 457.15 183.117 457.237 182.843 457.411C182.573 457.585 182.44 457.81 182.444 458.087C182.44 458.325 182.527 458.519 182.705 458.668C182.886 458.817 183.184 458.94 183.6 459.036L184.995 459.334C185.769 459.501 186.345 459.765 186.721 460.127C187.101 460.49 187.293 460.964 187.296 461.55C187.293 462.065 187.142 462.519 186.843 462.913C186.549 463.304 186.139 463.609 185.613 463.83C185.087 464.05 184.484 464.16 183.802 464.16C182.801 464.16 181.994 463.95 181.384 463.531C180.773 463.109 180.409 462.521 180.292 461.768L182.172 461.587C182.257 461.956 182.438 462.235 182.715 462.423C182.992 462.612 183.353 462.706 183.797 462.706C184.255 462.706 184.622 462.612 184.899 462.423C185.18 462.235 185.32 462.002 185.32 461.725C185.32 461.491 185.229 461.298 185.048 461.145C184.871 460.992 184.594 460.875 184.217 460.793L182.822 460.5C182.037 460.337 181.456 460.062 181.08 459.675C180.704 459.284 180.517 458.79 180.521 458.194C180.517 457.69 180.654 457.253 180.931 456.884C181.211 456.511 181.6 456.223 182.097 456.021C182.598 455.815 183.175 455.712 183.829 455.712C184.787 455.712 185.542 455.916 186.092 456.324C186.646 456.733 186.989 457.285 187.12 457.981ZM190.644 461.433L190.639 459.105H190.948L193.888 455.818H196.141L192.524 459.845H192.125L190.644 461.433ZM188.886 464V453.091H190.815V464H188.886ZM194.021 464L191.358 460.277L192.658 458.918L196.328 464H194.021ZM203.893 457.981L202.135 458.173C202.085 457.995 201.998 457.828 201.874 457.672C201.753 457.516 201.59 457.39 201.384 457.294C201.178 457.198 200.926 457.15 200.628 457.15C200.226 457.15 199.889 457.237 199.616 457.411C199.346 457.585 199.213 457.81 199.216 458.087C199.213 458.325 199.3 458.519 199.477 458.668C199.658 458.817 199.956 458.94 200.372 459.036L201.768 459.334C202.542 459.501 203.117 459.765 203.493 460.127C203.873 460.49 204.065 460.964 204.069 461.55C204.065 462.065 203.914 462.519 203.616 462.913C203.321 463.304 202.911 463.609 202.385 463.83C201.86 464.05 201.256 464.16 200.574 464.16C199.573 464.16 198.767 463.95 198.156 463.531C197.545 463.109 197.181 462.521 197.064 461.768L198.944 461.587C199.03 461.956 199.211 462.235 199.488 462.423C199.765 462.612 200.125 462.706 200.569 462.706C201.027 462.706 201.395 462.612 201.672 462.423C201.952 462.235 202.093 462.002 202.093 461.725C202.093 461.491 202.002 461.298 201.821 461.145C201.643 460.992 201.366 460.875 200.99 460.793L199.594 460.5C198.809 460.337 198.229 460.062 197.852 459.675C197.476 459.284 197.29 458.79 197.293 458.194C197.29 457.69 197.426 457.253 197.703 456.884C197.984 456.511 198.373 456.223 198.87 456.021C199.371 455.815 199.948 455.712 200.601 455.712C201.56 455.712 202.314 455.916 202.865 456.324C203.419 456.733 203.762 457.285 203.893 457.981ZM213.002 464.16C212.181 464.16 211.473 463.989 210.876 463.648C210.283 463.304 209.827 462.817 209.507 462.189C209.188 461.557 209.028 460.813 209.028 459.957C209.028 459.115 209.188 458.377 209.507 457.741C209.83 457.102 210.281 456.605 210.86 456.25C211.439 455.891 212.119 455.712 212.9 455.712C213.405 455.712 213.881 455.793 214.328 455.957C214.779 456.116 215.177 456.365 215.521 456.702C215.869 457.04 216.143 457.469 216.341 457.991C216.54 458.51 216.64 459.128 216.64 459.845V460.436H209.933V459.137H214.791C214.788 458.767 214.708 458.439 214.552 458.151C214.395 457.86 214.177 457.631 213.896 457.464C213.619 457.297 213.296 457.214 212.927 457.214C212.533 457.214 212.187 457.31 211.888 457.501C211.59 457.69 211.357 457.938 211.191 458.247C211.027 458.553 210.944 458.888 210.94 459.254V460.388C210.94 460.864 211.027 461.273 211.201 461.614C211.375 461.951 211.618 462.21 211.931 462.391C212.243 462.569 212.609 462.658 213.028 462.658C213.309 462.658 213.563 462.619 213.79 462.54C214.017 462.459 214.214 462.34 214.381 462.184C214.548 462.027 214.674 461.834 214.759 461.603L216.56 461.805C216.446 462.281 216.23 462.697 215.91 463.052C215.594 463.403 215.189 463.677 214.695 463.872C214.202 464.064 213.637 464.16 213.002 464.16ZM222.415 455.818V457.31H217.579V455.818H222.415ZM218.788 464V455.046C218.788 454.495 218.901 454.037 219.129 453.672C219.359 453.306 219.668 453.032 220.055 452.851C220.443 452.67 220.872 452.58 221.345 452.58C221.678 452.58 221.975 452.606 222.234 452.659C222.493 452.713 222.685 452.761 222.809 452.803L222.426 454.295C222.344 454.27 222.241 454.245 222.117 454.22C221.993 454.192 221.854 454.178 221.701 454.178C221.343 454.178 221.089 454.265 220.94 454.439C220.794 454.609 220.721 454.854 220.721 455.174V464H218.788ZM228.07 455.818V457.31H223.233V455.818H228.07ZM224.442 464V455.046C224.442 454.495 224.556 454.037 224.783 453.672C225.014 453.306 225.323 453.032 225.71 452.851C226.097 452.67 226.527 452.58 226.999 452.58C227.333 452.58 227.629 452.606 227.888 452.659C228.148 452.713 228.339 452.761 228.464 452.803L228.08 454.295C227.998 454.27 227.896 454.245 227.771 454.22C227.647 454.192 227.508 454.178 227.356 454.178C226.997 454.178 226.743 454.265 226.594 454.439C226.448 454.609 226.376 454.854 226.376 455.174V464H224.442ZM232.841 464.16C232.042 464.16 231.349 463.984 230.763 463.632C230.178 463.281 229.723 462.789 229.4 462.157C229.08 461.525 228.92 460.786 228.92 459.941C228.92 459.096 229.08 458.355 229.4 457.72C229.723 457.084 230.178 456.591 230.763 456.239C231.349 455.887 232.042 455.712 232.841 455.712C233.64 455.712 234.332 455.887 234.918 456.239C235.504 456.591 235.957 457.084 236.277 457.72C236.6 458.355 236.761 459.096 236.761 459.941C236.761 460.786 236.6 461.525 236.277 462.157C235.957 462.789 235.504 463.281 234.918 463.632C234.332 463.984 233.64 464.16 232.841 464.16ZM232.852 462.615C233.285 462.615 233.647 462.496 233.938 462.258C234.229 462.017 234.446 461.694 234.588 461.289C234.734 460.884 234.806 460.433 234.806 459.936C234.806 459.435 234.734 458.982 234.588 458.577C234.446 458.169 234.229 457.844 233.938 457.603C233.647 457.361 233.285 457.24 232.852 457.24C232.408 457.24 232.038 457.361 231.744 457.603C231.452 457.844 231.234 458.169 231.088 458.577C230.946 458.982 230.875 459.435 230.875 459.936C230.875 460.433 230.946 460.884 231.088 461.289C231.234 461.694 231.452 462.017 231.744 462.258C232.038 462.496 232.408 462.615 232.852 462.615ZM238.398 464V455.818H240.268V457.182H240.353C240.502 456.71 240.758 456.346 241.12 456.09C241.486 455.831 241.903 455.701 242.372 455.701C242.478 455.701 242.597 455.706 242.729 455.717C242.864 455.724 242.975 455.737 243.064 455.754V457.528C242.983 457.5 242.853 457.475 242.675 457.453C242.501 457.429 242.333 457.416 242.169 457.416C241.818 457.416 241.502 457.493 241.221 457.645C240.944 457.794 240.726 458.002 240.566 458.268C240.406 458.535 240.326 458.842 240.326 459.19V464H238.398ZM248.87 455.818V457.31H244.167V455.818H248.87ZM245.328 453.858H247.256V461.539C247.256 461.798 247.295 461.997 247.373 462.136C247.455 462.271 247.562 462.363 247.693 462.413C247.824 462.462 247.97 462.487 248.13 462.487C248.251 462.487 248.361 462.478 248.46 462.461C248.563 462.443 248.641 462.427 248.695 462.413L249.019 463.92C248.916 463.956 248.769 463.995 248.577 464.037C248.389 464.08 248.158 464.105 247.885 464.112C247.402 464.126 246.967 464.053 246.58 463.893C246.193 463.73 245.886 463.478 245.658 463.137C245.435 462.796 245.324 462.37 245.328 461.859V453.858ZM252.587 453.091V464H250.659V453.091H252.587ZM258.192 464.16C257.372 464.16 256.663 463.989 256.067 463.648C255.474 463.304 255.017 462.817 254.698 462.189C254.378 461.557 254.218 460.813 254.218 459.957C254.218 459.115 254.378 458.377 254.698 457.741C255.021 457.102 255.472 456.605 256.051 456.25C256.63 455.891 257.31 455.712 258.091 455.712C258.595 455.712 259.071 455.793 259.518 455.957C259.969 456.116 260.367 456.365 260.712 456.702C261.06 457.04 261.333 457.469 261.532 457.991C261.731 458.51 261.83 459.128 261.83 459.845V460.436H255.124V459.137H259.982C259.978 458.767 259.898 458.439 259.742 458.151C259.586 457.86 259.367 457.631 259.087 457.464C258.81 457.297 258.487 457.214 258.117 457.214C257.723 457.214 257.377 457.31 257.079 457.501C256.78 457.69 256.548 457.938 256.381 458.247C256.218 458.553 256.134 458.888 256.131 459.254V460.388C256.131 460.864 256.218 461.273 256.392 461.614C256.566 461.951 256.809 462.21 257.121 462.391C257.434 462.569 257.8 462.658 258.219 462.658C258.499 462.658 258.753 462.619 258.98 462.54C259.208 462.459 259.405 462.34 259.572 462.184C259.739 462.027 259.865 461.834 259.95 461.603L261.75 461.805C261.637 462.281 261.42 462.697 261.1 463.052C260.784 463.403 260.38 463.677 259.886 463.872C259.392 464.064 258.828 464.16 258.192 464.16ZM269.928 457.981L268.17 458.173C268.121 457.995 268.034 457.828 267.909 457.672C267.789 457.516 267.625 457.39 267.419 457.294C267.213 457.198 266.961 457.15 266.663 457.15C266.262 457.15 265.924 457.237 265.651 457.411C265.381 457.585 265.248 457.81 265.251 458.087C265.248 458.325 265.335 458.519 265.512 458.668C265.693 458.817 265.992 458.94 266.407 459.036L267.803 459.334C268.577 459.501 269.152 459.765 269.529 460.127C269.909 460.49 270.1 460.964 270.104 461.55C270.1 462.065 269.949 462.519 269.651 462.913C269.356 463.304 268.946 463.609 268.421 463.83C267.895 464.05 267.291 464.16 266.61 464.16C265.608 464.16 264.802 463.95 264.191 463.531C263.58 463.109 263.216 462.521 263.099 461.768L264.98 461.587C265.065 461.956 265.246 462.235 265.523 462.423C265.8 462.612 266.16 462.706 266.604 462.706C267.062 462.706 267.43 462.612 267.707 462.423C267.987 462.235 268.128 462.002 268.128 461.725C268.128 461.491 268.037 461.298 267.856 461.145C267.678 460.992 267.401 460.875 267.025 460.793L265.629 460.5C264.845 460.337 264.264 460.062 263.888 459.675C263.511 459.284 263.325 458.79 263.328 458.194C263.325 457.69 263.461 457.253 263.738 456.884C264.019 456.511 264.408 456.223 264.905 456.021C265.406 455.815 265.983 455.712 266.636 455.712C267.595 455.712 268.35 455.916 268.9 456.324C269.454 456.733 269.797 457.285 269.928 457.981ZM278.161 457.981L276.403 458.173C276.353 457.995 276.266 457.828 276.142 457.672C276.021 457.516 275.858 457.39 275.652 457.294C275.446 457.198 275.194 457.15 274.895 457.15C274.494 457.15 274.157 457.237 273.883 457.411C273.613 457.585 273.48 457.81 273.484 458.087C273.48 458.325 273.567 458.519 273.745 458.668C273.926 458.817 274.224 458.94 274.64 459.036L276.035 459.334C276.809 459.501 277.385 459.765 277.761 460.127C278.141 460.49 278.333 460.964 278.336 461.55C278.333 462.065 278.182 462.519 277.884 462.913C277.589 463.304 277.179 463.609 276.653 463.83C276.127 464.05 275.524 464.16 274.842 464.16C273.841 464.16 273.034 463.95 272.424 463.531C271.813 463.109 271.449 462.521 271.332 461.768L273.212 461.587C273.297 461.956 273.478 462.235 273.755 462.423C274.032 462.612 274.393 462.706 274.837 462.706C275.295 462.706 275.662 462.612 275.939 462.423C276.22 462.235 276.36 462.002 276.36 461.725C276.36 461.491 276.27 461.298 276.088 461.145C275.911 460.992 275.634 460.875 275.257 460.793L273.862 460.5C273.077 460.337 272.496 460.062 272.12 459.675C271.744 459.284 271.557 458.79 271.561 458.194C271.557 457.69 271.694 457.253 271.971 456.884C272.251 456.511 272.64 456.223 273.137 456.021C273.638 455.815 274.215 455.712 274.869 455.712C275.827 455.712 276.582 455.916 277.132 456.324C277.686 456.733 278.029 457.285 278.161 457.981ZM281.855 453.091V464H279.926V453.091H281.855ZM285.036 467.068C284.773 467.068 284.53 467.047 284.306 467.004C284.086 466.965 283.91 466.919 283.779 466.866L284.226 465.364C284.507 465.445 284.757 465.484 284.977 465.481C285.198 465.477 285.391 465.408 285.558 465.273C285.728 465.142 285.872 464.922 285.989 464.613L286.155 464.17L283.188 455.818H285.233L287.119 461.997H287.204L289.095 455.818H291.146L287.87 464.991C287.717 465.424 287.515 465.795 287.263 466.104C287.01 466.417 286.701 466.654 286.336 466.818C285.973 466.985 285.54 467.068 285.036 467.068ZM293.155 464.117C292.832 464.117 292.555 464.004 292.324 463.776C292.093 463.549 291.98 463.272 291.983 462.945C291.98 462.626 292.093 462.352 292.324 462.125C292.555 461.898 292.832 461.784 293.155 461.784C293.468 461.784 293.739 461.898 293.97 462.125C294.205 462.352 294.324 462.626 294.327 462.945C294.324 463.162 294.267 463.359 294.157 463.537C294.05 463.714 293.908 463.856 293.73 463.963C293.556 464.066 293.365 464.117 293.155 464.117Z" fill="#C4C4C4"/>
<path d="M138.823 425V410.455H148.624V412.99H141.898V416.456H148.12V418.991H141.898V422.464H148.652V425H138.823ZM156.879 414.091V416.364H150.146V414.091H156.879ZM151.687 425V413.303C151.687 412.512 151.841 411.856 152.148 411.335C152.461 410.814 152.887 410.424 153.427 410.163C153.967 409.903 154.58 409.773 155.266 409.773C155.73 409.773 156.154 409.808 156.538 409.879C156.926 409.95 157.215 410.014 157.404 410.071L156.864 412.344C156.746 412.306 156.599 412.27 156.424 412.237C156.254 412.204 156.078 412.188 155.898 412.188C155.453 412.188 155.143 412.292 154.968 412.5C154.793 412.704 154.705 412.99 154.705 413.359V425H151.687ZM164.593 414.091V416.364H157.86V414.091H164.593ZM159.402 425V413.303C159.402 412.512 159.556 411.856 159.863 411.335C160.176 410.814 160.602 410.424 161.142 410.163C161.681 409.903 162.295 409.773 162.981 409.773C163.445 409.773 163.869 409.808 164.252 409.879C164.641 409.95 164.93 410.014 165.119 410.071L164.579 412.344C164.461 412.306 164.314 412.27 164.139 412.237C163.968 412.204 163.793 412.188 163.613 412.188C163.168 412.188 162.858 412.292 162.683 412.5C162.508 412.704 162.42 412.99 162.42 413.359V425H159.402ZM166.442 425V414.091H169.467V425H166.442ZM167.962 412.685C167.512 412.685 167.126 412.536 166.804 412.237C166.487 411.934 166.328 411.572 166.328 411.151C166.328 410.734 166.487 410.376 166.804 410.078C167.126 409.775 167.512 409.624 167.962 409.624C168.411 409.624 168.795 409.775 169.112 410.078C169.434 410.376 169.595 410.734 169.595 411.151C169.595 411.572 169.434 411.934 169.112 412.237C168.795 412.536 168.411 412.685 167.962 412.685ZM176.82 425.213C175.703 425.213 174.741 424.976 173.936 424.503C173.136 424.025 172.521 423.362 172.09 422.514C171.664 421.667 171.451 420.691 171.451 419.588C171.451 418.471 171.666 417.491 172.097 416.648C172.533 415.8 173.15 415.14 173.951 414.666C174.751 414.188 175.703 413.949 176.806 413.949C177.757 413.949 178.591 414.122 179.306 414.467C180.021 414.813 180.587 415.298 181.003 415.923C181.42 416.548 181.65 417.282 181.692 418.125H178.837C178.757 417.58 178.543 417.143 178.198 416.811C177.857 416.475 177.409 416.307 176.855 416.307C176.387 416.307 175.977 416.435 175.627 416.69C175.281 416.941 175.011 417.308 174.817 417.791C174.623 418.274 174.526 418.859 174.526 419.545C174.526 420.241 174.621 420.833 174.81 421.321C175.004 421.809 175.276 422.18 175.627 422.436C175.977 422.692 176.387 422.82 176.855 422.82C177.201 422.82 177.511 422.749 177.786 422.607C178.065 422.464 178.295 422.259 178.475 421.989C178.659 421.714 178.78 421.385 178.837 421.001H181.692C181.645 421.835 181.417 422.569 181.01 423.203C180.608 423.833 180.051 424.325 179.341 424.68C178.631 425.036 177.791 425.213 176.82 425.213ZM183.629 425V414.091H186.655V425H183.629ZM185.149 412.685C184.699 412.685 184.313 412.536 183.991 412.237C183.674 411.934 183.516 411.572 183.516 411.151C183.516 410.734 183.674 410.376 183.991 410.078C184.313 409.775 184.699 409.624 185.149 409.624C185.599 409.624 185.982 409.775 186.3 410.078C186.622 410.376 186.783 410.734 186.783 411.151C186.783 411.572 186.622 411.934 186.3 412.237C185.982 412.536 185.599 412.685 185.149 412.685ZM194.05 425.213C192.928 425.213 191.962 424.986 191.152 424.531C190.347 424.072 189.727 423.423 189.292 422.585C188.856 421.742 188.638 420.746 188.638 419.595C188.638 418.473 188.856 417.488 189.292 416.641C189.727 415.793 190.34 415.133 191.131 414.659C191.926 414.186 192.859 413.949 193.929 413.949C194.649 413.949 195.319 414.065 195.939 414.297C196.564 414.524 197.109 414.867 197.573 415.327C198.042 415.786 198.406 416.364 198.667 417.06C198.927 417.751 199.057 418.561 199.057 419.489V420.32H189.846V418.445H196.209C196.209 418.009 196.114 417.623 195.925 417.287C195.736 416.951 195.473 416.688 195.137 416.499C194.805 416.304 194.419 416.207 193.979 416.207C193.52 416.207 193.113 416.314 192.757 416.527C192.407 416.735 192.132 417.017 191.934 417.372C191.735 417.723 191.633 418.113 191.628 418.544V420.327C191.628 420.866 191.728 421.333 191.926 421.726C192.13 422.119 192.417 422.422 192.786 422.635C193.155 422.848 193.593 422.955 194.1 422.955C194.436 422.955 194.744 422.907 195.023 422.812C195.302 422.718 195.542 422.576 195.74 422.386C195.939 422.197 196.091 421.965 196.195 421.69L198.993 421.875C198.851 422.547 198.56 423.134 198.12 423.636C197.684 424.134 197.121 424.522 196.429 424.801C195.743 425.076 194.95 425.213 194.05 425.213ZM204.057 418.693V425H201.032V414.091H203.915V416.016H204.043C204.284 415.381 204.689 414.879 205.257 414.51C205.826 414.136 206.515 413.949 207.324 413.949C208.082 413.949 208.742 414.115 209.306 414.446C209.869 414.777 210.307 415.251 210.62 415.866C210.932 416.477 211.088 417.206 211.088 418.054V425H208.063V418.594C208.068 417.926 207.897 417.405 207.551 417.031C207.206 416.652 206.73 416.463 206.124 416.463C205.717 416.463 205.357 416.551 205.044 416.726C204.737 416.901 204.495 417.157 204.32 417.493C204.15 417.824 204.062 418.224 204.057 418.693ZM219.276 414.091V416.364H212.706V414.091H219.276ZM214.197 411.477H217.223V421.648C217.223 421.927 217.266 422.145 217.351 422.301C217.436 422.453 217.554 422.559 217.706 422.621C217.862 422.682 218.042 422.713 218.246 422.713C218.388 422.713 218.53 422.701 218.672 422.678C218.814 422.649 218.923 422.628 218.999 422.614L219.474 424.865C219.323 424.912 219.11 424.967 218.835 425.028C218.561 425.095 218.227 425.135 217.834 425.149C217.105 425.178 216.465 425.08 215.916 424.858C215.372 424.635 214.948 424.29 214.645 423.821C214.342 423.352 214.193 422.76 214.197 422.045V411.477ZM224.506 410.455V425H221.481V410.455H224.506ZM228.798 429.091C228.414 429.091 228.055 429.06 227.718 428.999C227.387 428.942 227.112 428.868 226.895 428.778L227.576 426.52C227.931 426.629 228.251 426.688 228.535 426.697C228.824 426.707 229.073 426.641 229.281 426.499C229.494 426.357 229.667 426.115 229.799 425.774L229.977 425.312L226.064 414.091H229.245L231.504 422.102H231.618L233.897 414.091H237.1L232.86 426.179C232.657 426.766 232.38 427.277 232.029 427.713C231.684 428.153 231.246 428.492 230.716 428.729C230.185 428.97 229.546 429.091 228.798 429.091Z" fill="#C4C4C4"/>
<rect x="20" y="54" width="335" height="278" fill="#C4C4C4"/>
<rect width="335" height="50" transform="translate(20 517)" fill="white"/>
<rect x="20.5" y="517.5" width="334" height="49" rx="4.5" stroke="#A7A5A5"/>
<path d="M54.233 545V534.818H60.3778V535.912H55.4659V539.352H60.0597V540.446H55.4659V543.906H60.4574V545H54.233ZM66.8161 540.088V541.182H62.3615V540.088H66.8161ZM68.8805 545V537.364H70.014V538.557H70.1135C70.2725 538.149 70.5294 537.833 70.8841 537.607C71.2387 537.379 71.6646 537.264 72.1618 537.264C72.6655 537.264 73.0848 537.379 73.4196 537.607C73.7576 537.833 74.0211 538.149 74.21 538.557H74.2896C74.4851 538.162 74.7785 537.849 75.1696 537.617C75.5607 537.382 76.0297 537.264 76.5765 537.264C77.2593 537.264 77.8178 537.478 78.252 537.906C78.6861 538.33 78.9032 538.991 78.9032 539.889V545H77.7299V539.889C77.7299 539.326 77.5758 538.923 77.2676 538.681C76.9593 538.439 76.5964 538.318 76.1788 538.318C75.6419 538.318 75.2259 538.481 74.9309 538.805C74.6359 539.127 74.4885 539.535 74.4885 540.028V545H73.2953V539.77C73.2953 539.336 73.1544 538.986 72.8727 538.721C72.591 538.452 72.228 538.318 71.7839 538.318C71.479 538.318 71.194 538.399 70.9288 538.562C70.667 538.724 70.4548 538.95 70.2924 539.238C70.1333 539.523 70.0538 539.853 70.0538 540.227V545H68.8805ZM83.2956 545.179C82.8117 545.179 82.3726 545.088 81.9782 544.906C81.5837 544.72 81.2705 544.453 81.0385 544.105C80.8065 543.754 80.6905 543.33 80.6905 542.832C80.6905 542.395 80.7767 542.04 80.949 541.768C81.1214 541.493 81.3517 541.278 81.6401 541.122C81.9284 540.966 82.2466 540.85 82.5946 540.774C82.946 540.695 83.2989 540.632 83.6536 540.585C84.1176 540.526 84.4938 540.481 84.7821 540.451C85.0738 540.418 85.2859 540.363 85.4185 540.287C85.5544 540.211 85.6223 540.078 85.6223 539.889V539.849C85.6223 539.359 85.4881 538.978 85.2196 538.706C84.9545 538.434 84.5518 538.298 84.0115 538.298C83.4514 538.298 83.0123 538.421 82.6941 538.666C82.3759 538.911 82.1522 539.173 82.0229 539.452L80.9093 539.054C81.1081 538.59 81.3733 538.229 81.7047 537.97C82.0395 537.708 82.4041 537.526 82.7985 537.423C83.1962 537.317 83.5873 537.264 83.9718 537.264C84.217 537.264 84.4988 537.294 84.8169 537.354C85.1384 537.41 85.4483 537.528 85.7466 537.707C86.0482 537.886 86.2985 538.156 86.4973 538.517C86.6962 538.878 86.7956 539.362 86.7956 539.969V545H85.6223V543.966H85.5627C85.4831 544.132 85.3506 544.309 85.165 544.498C84.9793 544.687 84.7324 544.848 84.4242 544.98C84.1159 545.113 83.7398 545.179 83.2956 545.179ZM83.4746 544.125C83.9386 544.125 84.3297 544.034 84.6479 543.852C84.9694 543.669 85.2114 543.434 85.3738 543.146C85.5395 542.857 85.6223 542.554 85.6223 542.236V541.162C85.5726 541.222 85.4632 541.276 85.2942 541.326C85.1285 541.372 84.9363 541.414 84.7175 541.45C84.5021 541.483 84.2916 541.513 84.0861 541.54C83.8839 541.563 83.7199 541.583 83.5939 541.599C83.289 541.639 83.004 541.704 82.7388 541.793C82.477 541.879 82.2649 542.01 82.1025 542.186C81.9434 542.358 81.8638 542.594 81.8638 542.892C81.8638 543.3 82.0146 543.608 82.3162 543.817C82.6212 544.022 83.0073 544.125 83.4746 544.125ZM88.9371 545V537.364H90.1104V545H88.9371ZM89.5337 536.091C89.305 536.091 89.1078 536.013 88.9421 535.857C88.7797 535.701 88.6985 535.514 88.6985 535.295C88.6985 535.077 88.7797 534.889 88.9421 534.734C89.1078 534.578 89.305 534.5 89.5337 534.5C89.7624 534.5 89.958 534.578 90.1204 534.734C90.2861 534.889 90.369 535.077 90.369 535.295C90.369 535.514 90.2861 535.701 90.1204 535.857C89.958 536.013 89.7624 536.091 89.5337 536.091ZM93.4327 534.818V545H92.2594V534.818H93.4327Z" fill="#A7A5A5"/>
<rect x="20.5" y="586.5" width="334" height="49" rx="4.5" stroke="#A7A5A5"/>
<path d="M54.233 614V603.818H57.6733C58.4721 603.818 59.125 603.962 59.6321 604.251C60.1425 604.536 60.5204 604.922 60.7656 605.409C61.0109 605.896 61.1335 606.44 61.1335 607.04C61.1335 607.64 61.0109 608.185 60.7656 608.675C60.5237 609.166 60.1491 609.557 59.642 609.849C59.1349 610.137 58.4853 610.281 57.6932 610.281H55.2273V609.188H57.6534C58.2003 609.188 58.6394 609.093 58.9709 608.904C59.3023 608.715 59.5426 608.46 59.6918 608.138C59.8442 607.814 59.9205 607.447 59.9205 607.04C59.9205 606.632 59.8442 606.268 59.6918 605.946C59.5426 605.625 59.3007 605.373 58.9659 605.19C58.6312 605.005 58.187 604.912 57.6335 604.912H55.4659V614H54.233ZM65.2077 614.179C64.7238 614.179 64.2847 614.088 63.8903 613.906C63.4959 613.72 63.1826 613.453 62.9506 613.105C62.7186 612.754 62.6026 612.33 62.6026 611.832C62.6026 611.395 62.6888 611.04 62.8612 610.768C63.0335 610.493 63.2638 610.278 63.5522 610.122C63.8406 609.966 64.1587 609.85 64.5067 609.774C64.8581 609.695 65.2111 609.632 65.5657 609.585C66.0297 609.526 66.4059 609.481 66.6942 609.451C66.9859 609.418 67.198 609.363 67.3306 609.287C67.4665 609.211 67.5344 609.078 67.5344 608.889V608.849C67.5344 608.359 67.4002 607.978 67.1317 607.706C66.8666 607.434 66.4639 607.298 65.9237 607.298C65.3635 607.298 64.9244 607.421 64.6062 607.666C64.288 607.911 64.0643 608.173 63.935 608.452L62.8214 608.054C63.0202 607.59 63.2854 607.229 63.6168 606.97C63.9516 606.708 64.3162 606.526 64.7106 606.423C65.1083 606.317 65.4994 606.264 65.8839 606.264C66.1291 606.264 66.4109 606.294 66.729 606.354C67.0505 606.41 67.3604 606.528 67.6587 606.707C67.9603 606.886 68.2106 607.156 68.4094 607.517C68.6083 607.878 68.7077 608.362 68.7077 608.969V614H67.5344V612.966H67.4748C67.3952 613.132 67.2627 613.309 67.0771 613.498C66.8915 613.687 66.6445 613.848 66.3363 613.98C66.0281 614.113 65.6519 614.179 65.2077 614.179ZM65.3867 613.125C65.8507 613.125 66.2418 613.034 66.56 612.852C66.8815 612.669 67.1235 612.434 67.2859 612.146C67.4516 611.857 67.5344 611.554 67.5344 611.236V610.162C67.4847 610.222 67.3754 610.276 67.2063 610.326C67.0406 610.372 66.8484 610.414 66.6296 610.45C66.4142 610.483 66.2037 610.513 65.9982 610.54C65.796 610.563 65.632 610.583 65.506 610.599C65.2011 610.639 64.9161 610.704 64.6509 610.793C64.3891 610.879 64.177 611.01 64.0146 611.186C63.8555 611.358 63.7759 611.594 63.7759 611.892C63.7759 612.3 63.9267 612.608 64.2283 612.817C64.5333 613.022 64.9194 613.125 65.3867 613.125ZM76.2583 608.074L75.2044 608.372C75.1381 608.196 75.0403 608.026 74.911 607.86C74.7851 607.691 74.6127 607.552 74.394 607.442C74.1752 607.333 73.8952 607.278 73.5538 607.278C73.0865 607.278 72.697 607.386 72.3855 607.602C72.0772 607.814 71.9231 608.084 71.9231 608.412C71.9231 608.704 72.0292 608.934 72.2413 609.103C72.4534 609.272 72.7849 609.413 73.2356 609.526L74.3691 609.804C75.0519 609.97 75.5607 610.223 75.8954 610.565C76.2302 610.903 76.3975 611.339 76.3975 611.872C76.3975 612.31 76.2716 612.701 76.0197 613.045C75.7711 613.39 75.4231 613.662 74.9757 613.861C74.5282 614.06 74.0079 614.159 73.4146 614.159C72.6357 614.159 71.9911 613.99 71.4806 613.652C70.9702 613.314 70.6471 612.82 70.5112 612.17L71.6248 611.892C71.7309 612.303 71.9314 612.611 72.2264 612.817C72.5247 613.022 72.9141 613.125 73.3947 613.125C73.9416 613.125 74.3758 613.009 74.6973 612.777C75.0221 612.542 75.1845 612.26 75.1845 611.932C75.1845 611.667 75.0917 611.445 74.9061 611.266C74.7205 611.083 74.4354 610.947 74.051 610.858L72.7782 610.56C72.0789 610.394 71.5652 610.137 71.237 609.789C70.9122 609.438 70.7498 608.999 70.7498 608.472C70.7498 608.041 70.8708 607.66 71.1127 607.328C71.358 606.997 71.6911 606.737 72.112 606.548C72.5363 606.359 73.0169 606.264 73.5538 606.264C74.3095 606.264 74.9028 606.43 75.3336 606.761C75.7678 607.093 76.0761 607.53 76.2583 608.074ZM83.5728 608.074L82.5188 608.372C82.4525 608.196 82.3548 608.026 82.2255 607.86C82.0996 607.691 81.9272 607.552 81.7085 607.442C81.4897 607.333 81.2096 607.278 80.8683 607.278C80.4009 607.278 80.0115 607.386 79.6999 607.602C79.3917 607.814 79.2376 608.084 79.2376 608.412C79.2376 608.704 79.3436 608.934 79.5558 609.103C79.7679 609.272 80.0993 609.413 80.5501 609.526L81.6836 609.804C82.3664 609.97 82.8751 610.223 83.2099 610.565C83.5446 610.903 83.712 611.339 83.712 611.872C83.712 612.31 83.5861 612.701 83.3342 613.045C83.0856 613.39 82.7376 613.662 82.2901 613.861C81.8427 614.06 81.3223 614.159 80.729 614.159C79.9502 614.159 79.3055 613.99 78.7951 613.652C78.2847 613.314 77.9615 612.82 77.8256 612.17L78.9393 611.892C79.0453 612.303 79.2459 612.611 79.5408 612.817C79.8391 613.022 80.2286 613.125 80.7092 613.125C81.256 613.125 81.6902 613.009 82.0117 612.777C82.3365 612.542 82.4989 612.26 82.4989 611.932C82.4989 611.667 82.4061 611.445 82.2205 611.266C82.0349 611.083 81.7499 610.947 81.3654 610.858L80.0927 610.56C79.3933 610.394 78.8796 610.137 78.5515 609.789C78.2267 609.438 78.0643 608.999 78.0643 608.472C78.0643 608.041 78.1853 607.66 78.4272 607.328C78.6725 606.997 79.0056 606.737 79.4265 606.548C79.8507 606.359 80.3313 606.264 80.8683 606.264C81.6239 606.264 82.2172 606.43 82.6481 606.761C83.0823 607.093 83.3905 607.53 83.5728 608.074ZM87.2083 614L84.8816 606.364H86.1145L87.7651 612.21H87.8446L89.4753 606.364H90.7282L92.339 612.19H92.4185L94.0691 606.364H95.302L92.9753 614H91.8219L90.1515 608.134H90.0321L88.3617 614H87.2083ZM99.6957 614.159C99.0063 614.159 98.4014 613.995 97.881 613.667C97.364 613.339 96.9596 612.88 96.668 612.29C96.3796 611.7 96.2354 611.01 96.2354 610.222C96.2354 609.426 96.3796 608.732 96.668 608.138C96.9596 607.545 97.364 607.085 97.881 606.756C98.4014 606.428 99.0063 606.264 99.6957 606.264C100.385 606.264 100.988 606.428 101.505 606.756C102.026 607.085 102.43 607.545 102.718 608.138C103.01 608.732 103.156 609.426 103.156 610.222C103.156 611.01 103.01 611.7 102.718 612.29C102.43 612.88 102.026 613.339 101.505 613.667C100.988 613.995 100.385 614.159 99.6957 614.159ZM99.6957 613.105C100.219 613.105 100.65 612.971 100.988 612.702C101.326 612.434 101.577 612.081 101.739 611.643C101.901 611.206 101.983 610.732 101.983 610.222C101.983 609.711 101.901 609.236 101.739 608.795C101.577 608.354 101.326 607.998 100.988 607.726C100.65 607.454 100.219 607.318 99.6957 607.318C99.172 607.318 98.7411 607.454 98.4031 607.726C98.065 607.998 97.8147 608.354 97.6523 608.795C97.4899 609.236 97.4087 609.711 97.4087 610.222C97.4087 610.732 97.4899 611.206 97.6523 611.643C97.8147 612.081 98.065 612.434 98.4031 612.702C98.7411 612.971 99.172 613.105 99.6957 613.105ZM104.947 614V606.364H106.08V607.517H106.16C106.299 607.139 106.551 606.833 106.916 606.597C107.28 606.362 107.691 606.244 108.149 606.244C108.235 606.244 108.343 606.246 108.472 606.249C108.601 606.253 108.699 606.258 108.765 606.264V607.457C108.725 607.447 108.634 607.433 108.492 607.413C108.352 607.389 108.205 607.378 108.049 607.378C107.678 607.378 107.347 607.456 107.055 607.612C106.767 607.764 106.538 607.976 106.369 608.248C106.203 608.516 106.12 608.823 106.12 609.168V614H104.947ZM112.807 614.159C112.171 614.159 111.609 613.998 111.122 613.677C110.634 613.352 110.253 612.895 109.978 612.305C109.703 611.711 109.566 611.01 109.566 610.202C109.566 609.4 109.703 608.704 109.978 608.114C110.253 607.524 110.636 607.068 111.127 606.746C111.617 606.425 112.184 606.264 112.827 606.264C113.324 606.264 113.717 606.347 114.005 606.513C114.297 606.675 114.519 606.861 114.671 607.07C114.827 607.275 114.948 607.444 115.034 607.577H115.134V603.818H116.307V614H115.173V612.827H115.034C114.948 612.966 114.825 613.142 114.666 613.354C114.507 613.562 114.28 613.75 113.985 613.915C113.69 614.078 113.298 614.159 112.807 614.159ZM112.966 613.105C113.437 613.105 113.834 612.982 114.159 612.737C114.484 612.489 114.731 612.146 114.9 611.708C115.069 611.267 115.154 610.759 115.154 610.182C115.154 609.612 115.071 609.113 114.905 608.685C114.739 608.254 114.494 607.92 114.169 607.681C113.844 607.439 113.443 607.318 112.966 607.318C112.469 607.318 112.055 607.446 111.723 607.701C111.395 607.953 111.148 608.296 110.982 608.73C110.82 609.161 110.739 609.645 110.739 610.182C110.739 610.725 110.822 611.219 110.987 611.663C111.156 612.104 111.405 612.455 111.733 612.717C112.065 612.976 112.476 613.105 112.966 613.105Z" fill="#A7A5A5"/>
<rect x="106" y="689" width="163" height="37" rx="8" fill="#D9D9D9"/>
<path d="M158.607 706C158.514 705.662 158.378 705.345 158.199 705.05C158.02 704.752 157.798 704.492 157.533 704.27C157.271 704.045 156.968 703.869 156.623 703.743C156.282 703.617 155.901 703.554 155.48 703.554C154.817 703.554 154.224 703.726 153.7 704.071C153.176 704.416 152.762 704.913 152.457 705.562C152.156 706.212 152.005 706.994 152.005 707.909C152.005 708.821 152.157 709.601 152.462 710.251C152.767 710.9 153.185 711.399 153.715 711.747C154.249 712.092 154.858 712.264 155.544 712.264C156.171 712.264 156.724 712.125 157.205 711.847C157.686 711.568 158.06 711.17 158.329 710.653C158.6 710.136 158.733 709.522 158.726 708.809L159.025 708.903H155.763V708.068H159.631V708.903C159.631 709.772 159.455 710.522 159.104 711.156C158.753 711.789 158.271 712.277 157.657 712.622C157.044 712.967 156.34 713.139 155.544 713.139C154.656 713.139 153.879 712.925 153.213 712.498C152.547 712.067 152.028 711.46 151.657 710.678C151.289 709.893 151.105 708.97 151.105 707.909C151.105 707.11 151.211 706.389 151.423 705.746C151.635 705.103 151.935 704.553 152.323 704.096C152.714 703.638 153.176 703.289 153.71 703.047C154.244 702.802 154.834 702.679 155.48 702.679C156.037 702.679 156.545 702.767 157.006 702.942C157.47 703.118 157.878 703.36 158.229 703.668C158.584 703.973 158.874 704.326 159.099 704.727C159.328 705.125 159.482 705.549 159.562 706H158.607ZM164.843 713.159C164.13 713.159 163.514 712.993 162.993 712.662C162.473 712.327 162.07 711.865 161.785 711.275C161.503 710.682 161.362 709.999 161.362 709.227C161.362 708.458 161.503 707.775 161.785 707.178C162.07 706.578 162.463 706.109 162.963 705.771C163.467 705.43 164.049 705.259 164.708 705.259C165.123 705.259 165.522 705.335 165.907 705.488C166.291 705.637 166.636 705.867 166.941 706.179C167.249 706.487 167.492 706.877 167.671 707.347C167.85 707.815 167.94 708.368 167.94 709.008V709.445H161.974V708.665H167.035C167.035 708.174 166.936 707.733 166.737 707.342C166.541 706.948 166.268 706.636 165.916 706.408C165.568 706.179 165.166 706.065 164.708 706.065C164.224 706.065 163.799 706.194 163.431 706.452C163.063 706.711 162.774 707.052 162.566 707.477C162.36 707.901 162.256 708.365 162.252 708.869V709.336C162.252 709.942 162.357 710.473 162.566 710.927C162.778 711.378 163.078 711.727 163.465 711.976C163.853 712.224 164.312 712.349 164.843 712.349C165.204 712.349 165.52 712.292 165.792 712.18C166.067 712.067 166.298 711.916 166.483 711.727C166.672 711.535 166.815 711.325 166.911 711.096L167.751 711.369C167.635 711.691 167.444 711.987 167.179 712.259C166.917 712.531 166.589 712.75 166.195 712.915C165.804 713.078 165.353 713.159 164.843 713.159ZM172.898 705.364V706.134H169.254V705.364H172.898ZM170.392 703.534H171.282V711.006C171.282 711.325 171.337 711.575 171.446 711.757C171.555 711.936 171.698 712.064 171.874 712.14C172.049 712.213 172.237 712.249 172.435 712.249C172.551 712.249 172.651 712.243 172.734 712.229C172.817 712.213 172.89 712.196 172.953 712.18L173.141 712.98C173.055 713.013 172.949 713.043 172.823 713.07C172.697 713.099 172.542 713.114 172.356 713.114C172.031 713.114 171.718 713.043 171.416 712.901C171.118 712.758 170.873 712.546 170.68 712.264C170.488 711.982 170.392 711.633 170.392 711.215V703.534ZM183.976 707.039L183.165 707.268C183.086 707.039 182.973 706.832 182.827 706.646C182.681 706.461 182.491 706.313 182.256 706.204C182.024 706.094 181.735 706.04 181.391 706.04C180.873 706.04 180.449 706.162 180.118 706.408C179.786 706.653 179.621 706.969 179.621 707.357C179.621 707.685 179.733 707.952 179.959 708.158C180.187 708.36 180.539 708.521 181.013 708.64L182.166 708.923C182.806 709.079 183.285 709.326 183.603 709.664C183.924 710.002 184.085 710.426 184.085 710.937C184.085 711.368 183.966 711.75 183.727 712.085C183.489 712.42 183.155 712.683 182.728 712.876C182.304 713.065 181.811 713.159 181.251 713.159C180.506 713.159 179.891 712.992 179.407 712.657C178.923 712.319 178.613 711.832 178.477 711.195L179.327 710.987C179.437 711.441 179.65 711.784 179.969 712.016C180.29 712.248 180.713 712.364 181.236 712.364C181.823 712.364 182.292 712.233 182.643 711.971C182.995 711.706 183.17 711.374 183.17 710.977C183.17 710.668 183.068 710.41 182.862 710.201C182.657 709.989 182.345 709.833 181.927 709.734L180.68 709.435C180.017 709.276 179.526 709.024 179.208 708.68C178.89 708.335 178.731 707.907 178.731 707.397C178.731 706.976 178.845 706.607 179.074 706.288C179.302 705.967 179.617 705.715 180.018 705.533C180.419 705.35 180.877 705.259 181.391 705.259C182.09 705.259 182.648 705.418 183.066 705.737C183.487 706.051 183.79 706.486 183.976 707.039ZM189.031 705.364V706.134H185.386V705.364H189.031ZM186.525 703.534H187.415V711.006C187.415 711.325 187.47 711.575 187.579 711.757C187.688 711.936 187.831 712.064 188.006 712.14C188.182 712.213 188.369 712.249 188.568 712.249C188.684 712.249 188.784 712.243 188.867 712.229C188.949 712.213 189.022 712.196 189.085 712.18L189.274 712.98C189.188 713.013 189.082 713.043 188.956 713.07C188.83 713.099 188.674 713.114 188.489 713.114C188.164 713.114 187.851 713.043 187.549 712.901C187.251 712.758 187.006 712.546 186.813 712.264C186.621 711.982 186.525 711.633 186.525 711.215V703.534ZM193.173 713.174C192.713 713.174 192.292 713.085 191.91 712.906C191.529 712.723 191.226 712.461 191.001 712.12C190.775 711.775 190.663 711.358 190.663 710.867C190.663 710.489 190.734 710.171 190.876 709.913C191.019 709.654 191.221 709.442 191.483 709.276C191.745 709.111 192.055 708.98 192.413 708.884C192.771 708.787 193.165 708.713 193.596 708.66C194.023 708.607 194.385 708.56 194.68 708.521C194.978 708.481 195.205 708.418 195.361 708.332C195.516 708.246 195.594 708.106 195.594 707.914V707.735C195.594 707.215 195.439 706.805 195.127 706.507C194.819 706.205 194.375 706.055 193.795 706.055C193.244 706.055 192.795 706.176 192.447 706.418C192.103 706.66 191.861 706.945 191.722 707.273L190.881 706.969C191.054 706.552 191.292 706.219 191.597 705.97C191.902 705.718 192.244 705.538 192.621 705.428C192.999 705.316 193.382 705.259 193.77 705.259C194.061 705.259 194.365 705.297 194.68 705.374C194.998 705.45 195.293 705.582 195.565 705.771C195.836 705.957 196.057 706.217 196.226 706.552C196.395 706.883 196.479 707.304 196.479 707.815V713H195.594V711.792H195.54C195.434 712.017 195.276 712.236 195.067 712.448C194.859 712.66 194.597 712.834 194.282 712.97C193.967 713.106 193.597 713.174 193.173 713.174ZM193.293 712.364C193.763 712.364 194.171 712.259 194.516 712.05C194.86 711.842 195.125 711.565 195.311 711.22C195.5 710.872 195.594 710.489 195.594 710.072V708.968C195.528 709.031 195.417 709.087 195.261 709.137C195.109 709.187 194.931 709.232 194.729 709.271C194.53 709.308 194.332 709.339 194.133 709.366C193.934 709.392 193.755 709.415 193.596 709.435C193.165 709.488 192.797 709.571 192.492 709.684C192.187 709.797 191.954 709.952 191.791 710.151C191.629 710.347 191.547 710.599 191.547 710.907C191.547 711.371 191.713 711.731 192.045 711.986C192.376 712.238 192.792 712.364 193.293 712.364ZM198.833 713V705.364H199.693V706.537H199.758C199.911 706.152 200.176 705.843 200.554 705.607C200.935 705.369 201.366 705.249 201.846 705.249C201.919 705.249 202 705.251 202.09 705.254C202.179 705.258 202.254 705.261 202.313 705.264V706.164C202.274 706.157 202.204 706.147 202.105 706.134C202.005 706.121 201.898 706.114 201.782 706.114C201.384 706.114 201.029 706.199 200.718 706.368C200.409 706.534 200.166 706.764 199.987 707.059C199.808 707.354 199.718 707.69 199.718 708.068V713H198.833ZM207.31 705.364V706.134H203.666V705.364H207.31ZM204.804 703.534H205.694V711.006C205.694 711.325 205.749 711.575 205.858 711.757C205.968 711.936 206.11 712.064 206.286 712.14C206.461 712.213 206.649 712.249 206.848 712.249C206.964 712.249 207.063 712.243 207.146 712.229C207.229 712.213 207.302 712.196 207.365 712.18L207.554 712.98C207.467 713.013 207.361 713.043 207.235 713.07C207.109 713.099 206.954 713.114 206.768 713.114C206.443 713.114 206.13 713.043 205.828 712.901C205.53 712.758 205.285 712.546 205.093 712.264C204.9 711.982 204.804 711.633 204.804 711.215V703.534ZM212.325 713.159C211.612 713.159 210.996 712.993 210.476 712.662C209.955 712.327 209.553 711.865 209.267 711.275C208.986 710.682 208.845 709.999 208.845 709.227C208.845 708.458 208.986 707.775 209.267 707.178C209.553 706.578 209.945 706.109 210.446 705.771C210.95 705.43 211.531 705.259 212.191 705.259C212.605 705.259 213.004 705.335 213.389 705.488C213.773 705.637 214.118 705.867 214.423 706.179C214.731 706.487 214.975 706.877 215.154 707.347C215.333 707.815 215.422 708.368 215.422 709.008V709.445H209.456V708.665H214.517C214.517 708.174 214.418 707.733 214.219 707.342C214.024 706.948 213.75 706.636 213.399 706.408C213.051 706.179 212.648 706.065 212.191 706.065C211.707 706.065 211.281 706.194 210.913 706.452C210.545 706.711 210.257 707.052 210.048 707.477C209.843 707.901 209.738 708.365 209.735 708.869V709.336C209.735 709.942 209.839 710.473 210.048 710.927C210.26 711.378 210.56 711.727 210.948 711.976C211.336 712.224 211.795 712.349 212.325 712.349C212.686 712.349 213.003 712.292 213.275 712.18C213.55 712.067 213.78 711.916 213.966 711.727C214.155 711.535 214.297 711.325 214.393 711.096L215.233 711.369C215.117 711.691 214.927 711.987 214.662 712.259C214.4 712.531 214.072 712.75 213.677 712.915C213.286 713.078 212.835 713.159 212.325 713.159ZM220.122 713.159C219.495 713.159 218.947 712.993 218.476 712.662C218.005 712.33 217.638 711.868 217.372 711.275C217.111 710.682 216.98 709.991 216.98 709.202C216.98 708.416 217.111 707.728 217.372 707.138C217.638 706.545 218.007 706.085 218.481 705.756C218.955 705.425 219.507 705.259 220.137 705.259C220.601 705.259 220.987 705.342 221.295 705.508C221.603 705.67 221.85 705.872 222.036 706.114C222.221 706.356 222.366 706.592 222.468 706.82H222.548V702.818H223.438V713H222.573V711.583H222.468C222.366 711.815 222.22 712.054 222.031 712.299C221.842 712.541 221.592 712.745 221.28 712.911C220.972 713.076 220.586 713.159 220.122 713.159ZM220.226 712.349C220.72 712.349 221.141 712.214 221.489 711.946C221.837 711.674 222.102 711.301 222.284 710.827C222.47 710.35 222.563 709.803 222.563 709.187C222.563 708.577 222.472 708.038 222.289 707.571C222.107 707.1 221.842 706.732 221.494 706.467C221.146 706.199 220.723 706.065 220.226 706.065C219.716 706.065 219.285 706.204 218.934 706.482C218.585 706.757 218.32 707.13 218.138 707.601C217.959 708.071 217.87 708.6 217.87 709.187C217.87 709.78 217.961 710.315 218.143 710.793C218.325 711.27 218.59 711.649 218.938 711.931C219.29 712.21 219.719 712.349 220.226 712.349Z" fill="white"/>
<g clip-path="url(#clip0_64_564)">
<rect width="375" height="47" fill="white" fill-opacity="0.8"/>
<rect width="101.5" height="47" fill="white" fill-opacity="0.8"/>
<g clip-path="url(#clip1_64_564)">
<path d="M34.5385 29.5V20.2109H34.4056L31.601 22.1953V20.2969L34.5463 18.2266H36.5541V29.5H34.5385ZM42.1247 29.5V20.2109H41.9919L39.1872 22.1953V20.2969L42.1325 18.2266H44.1403V29.5H42.1247ZM48.4062 22.1953C47.6953 22.1953 47.1641 21.6484 47.1641 20.9609C47.1641 20.2656 47.6953 19.7266 48.4062 19.7266C49.125 19.7266 49.6484 20.2656 49.6484 20.9609C49.6484 21.6484 49.125 22.1953 48.4062 22.1953ZM48.4062 27.9922C47.6953 27.9922 47.1641 27.4531 47.1641 26.7578C47.1641 26.0625 47.6953 25.5234 48.4062 25.5234C49.125 25.5234 49.6484 26.0625 49.6484 26.7578C49.6484 27.4531 49.125 27.9922 48.4062 27.9922ZM55.9144 29.7266C53.4456 29.7266 51.8284 28.3828 51.68 26.4531L51.6722 26.3594H53.5941L53.6019 26.4453C53.7113 27.3984 54.5941 28.0781 55.9144 28.0781C57.2191 28.0781 58.0863 27.3516 58.0863 26.3047V26.2891C58.0863 25.1016 57.2113 24.4453 55.7659 24.4453H54.4378V22.9453H55.7269C56.9691 22.9453 57.7972 22.2422 57.7972 21.2578V21.2422C57.7972 20.2109 57.1019 19.6016 55.8988 19.6016C54.7113 19.6016 53.8909 20.2344 53.7894 21.2422L53.7816 21.3203H51.9066L51.9144 21.2344C52.0863 19.2813 53.6253 18 55.8988 18C58.2191 18 59.7269 19.2109 59.7269 20.9766V20.9922C59.7269 22.3906 58.7191 23.3203 57.3675 23.6016V23.6406C59.0238 23.7969 60.1253 24.7812 60.1253 26.3438V26.3594C60.1253 28.3438 58.4144 29.7266 55.9144 29.7266ZM66.0709 29.7812C63.3913 29.7812 61.7819 27.5078 61.7819 23.8672V23.8516C61.7819 20.2109 63.3913 17.9453 66.0709 17.9453C68.7506 17.9453 70.3756 20.2109 70.3756 23.8516V23.8672C70.3756 27.5078 68.7506 29.7812 66.0709 29.7812ZM66.0709 28.1484C67.5084 28.1484 68.3444 26.5391 68.3444 23.8672V23.8516C68.3444 21.1797 67.5084 19.5859 66.0709 19.5859C64.6334 19.5859 63.8131 21.1797 63.8131 23.8516V23.8672C63.8131 26.5391 64.6334 28.1484 66.0709 28.1484Z" fill="black"/>
</g>
<g clip-path="url(#clip2_64_564)">
<rect width="172" height="47" transform="translate(101.5)" fill="white" fill-opacity="0.8"/>
</g>
<rect width="101.5" height="47" transform="translate(273.5)" fill="white" fill-opacity="0.8"/>
<g clip-path="url(#clip3_64_564)">
<path d="M294.25 20.5C294.25 19.9477 294.698 19.5 295.25 19.5H296.25C296.802 19.5 297.25 19.9477 297.25 20.5V28.5C297.25 29.0523 296.802 29.5 296.25 29.5H295.25C294.698 29.5 294.25 29.0523 294.25 28.5V20.5Z" fill="black"/>
<path d="M299.25 18.5C299.25 17.9477 299.698 17.5 300.25 17.5H301.25C301.802 17.5 302.25 17.9477 302.25 18.5V28.5C302.25 29.0523 301.802 29.5 301.25 29.5H300.25C299.698 29.5 299.25 29.0523 299.25 28.5V18.5Z" fill="black"/>
<path d="M289.25 24C289.25 23.4477 289.698 23 290.25 23H291.25C291.802 23 292.25 23.4477 292.25 24V28.5C292.25 29.0523 291.802 29.5 291.25 29.5H290.25C289.698 29.5 289.25 29.0523 289.25 28.5V24Z" fill="black"/>
<path d="M284.25 26.5C284.25 25.9477 284.698 25.5 285.25 25.5H286.25C286.802 25.5 287.25 25.9477 287.25 26.5V28.5C287.25 29.0523 286.802 29.5 286.25 29.5H285.25C284.698 29.5 284.25 29.0523 284.25 28.5V26.5Z" fill="black"/>
</g>
<g clip-path="url(#clip4_64_564)">
<path fill-rule="evenodd" clip-rule="evenodd" d="M318.8 20.0875C321.266 20.0876 323.639 21.0551 325.426 22.7898C325.561 22.9238 325.776 22.9221 325.909 22.786L327.195 21.4605C327.263 21.3915 327.3 21.298 327.299 21.2008C327.299 21.1035 327.26 21.0105 327.192 20.9423C322.5 16.3526 315.098 16.3526 310.407 20.9423C310.339 21.0105 310.3 21.1035 310.299 21.2007C310.299 21.2979 310.336 21.3914 310.403 21.4605L311.69 22.786C311.823 22.9223 312.038 22.924 312.173 22.7898C313.961 21.0549 316.333 20.0875 318.8 20.0875ZM318.835 24.0894C320.191 24.0893 321.497 24.6035 322.502 25.532C322.638 25.6638 322.852 25.6609 322.984 25.5256L324.269 24.2C324.337 24.1304 324.375 24.0361 324.374 23.9381C324.373 23.8401 324.333 23.7466 324.264 23.6784C321.205 20.7739 316.468 20.7739 313.409 23.6784C313.34 23.7466 313.3 23.8401 313.299 23.9382C313.298 24.0362 313.336 24.1305 313.404 24.2L314.689 25.5256C314.821 25.6609 315.035 25.6638 315.171 25.532C316.175 24.6041 317.481 24.09 318.835 24.0894ZM321.449 26.6767C321.451 26.775 321.413 26.8698 321.344 26.9386L319.121 29.2289C319.056 29.2962 318.967 29.334 318.874 29.334C318.782 29.334 318.693 29.2962 318.628 29.2289L316.404 26.9386C316.335 26.8697 316.297 26.7749 316.299 26.6766C316.301 26.5783 316.343 26.4853 316.415 26.4194C317.835 25.1935 319.914 25.1935 321.334 26.4194C321.405 26.4853 321.447 26.5784 321.449 26.6767Z" fill="black"/>
</g>
<g clip-path="url(#clip5_64_564)">
<path opacity="0.35" d="M340.299 17.5H357.299C359.232 17.5 360.799 19.067 360.799 21V26C360.799 27.933 359.232 29.5 357.299 29.5H340.299C338.366 29.5 336.799 27.933 336.799 26V21C336.799 19.067 338.366 17.5 340.299 17.5Z" stroke="black"/>
<path opacity="0.4" d="M362.299 22V26.2203C363.148 25.8629 363.701 25.0314 363.701 24.1102C363.701 23.1889 363.148 22.3574 362.299 22Z" fill="black"/>
<path d="M338.299 21C338.299 19.8954 339.195 19 340.299 19H357.299C358.404 19 359.299 19.8954 359.299 21V26C359.299 27.1046 358.404 28 357.299 28H340.299C339.195 28 338.299 27.1046 338.299 26V21Z" fill="black"/>
</g>
</g>
<defs>
<clipPath id="clip0_64_564">
<rect width="375" height="47" fill="white"/>
</clipPath>
<clipPath id="clip1_64_564">
<rect width="40" height="13" fill="white" transform="translate(30.75 17)"/>
</clipPath>
<clipPath id="clip2_64_564">
<rect width="172" height="47" fill="white" transform="translate(101.5)"/>
</clipPath>
<clipPath id="clip3_64_564">
<rect width="18" height="12" fill="white" transform="translate(284.25 17.5)"/>
</clipPath>
<clipPath id="clip4_64_564">
<rect width="18" height="12" fill="white" transform="translate(310.25 17.5)"/>
</clipPath>
<clipPath id="clip5_64_564">
<rect width="28" height="13" fill="white" transform="translate(336.25 17)"/>
</clipPath>
</defs>
</svg>
