<svg width="375" height="812" viewBox="0 0 375 812" fill="none" xmlns="http://www.w3.org/2000/svg">
<rect width="375" height="812" fill="white"/>
<path d="M109.136 605H105.439V594.091H109.21C110.293 594.091 111.224 594.309 112.001 594.746C112.783 595.179 113.383 595.803 113.802 596.616C114.221 597.429 114.43 598.402 114.43 599.535C114.43 600.671 114.219 601.648 113.796 602.464C113.377 603.281 112.772 603.908 111.98 604.345C111.192 604.782 110.243 605 109.136 605ZM107.415 603.29H109.04C109.8 603.29 110.433 603.152 110.941 602.875C111.449 602.594 111.831 602.177 112.087 601.623C112.342 601.065 112.47 600.369 112.47 599.535C112.47 598.7 112.342 598.008 112.087 597.457C111.831 596.903 111.453 596.49 110.952 596.216C110.455 595.939 109.837 595.801 109.098 595.801H107.415V603.29ZM116.223 605V596.818H118.151V605H116.223ZM117.192 595.657C116.887 595.657 116.624 595.556 116.404 595.353C116.184 595.147 116.074 594.901 116.074 594.613C116.074 594.322 116.184 594.075 116.404 593.873C116.624 593.667 116.887 593.564 117.192 593.564C117.501 593.564 117.764 593.667 117.981 593.873C118.201 594.075 118.311 594.322 118.311 594.613C118.311 594.901 118.201 595.147 117.981 595.353C117.764 595.556 117.501 595.657 117.192 595.657ZM126.6 598.981L124.843 599.173C124.793 598.995 124.706 598.828 124.582 598.672C124.461 598.516 124.298 598.39 124.092 598.294C123.886 598.198 123.633 598.15 123.335 598.15C122.934 598.15 122.597 598.237 122.323 598.411C122.053 598.585 121.92 598.81 121.924 599.087C121.92 599.325 122.007 599.519 122.185 599.668C122.366 599.817 122.664 599.94 123.08 600.036L124.475 600.334C125.249 600.501 125.825 600.765 126.201 601.127C126.581 601.49 126.773 601.964 126.776 602.55C126.773 603.065 126.622 603.519 126.323 603.913C126.029 604.304 125.619 604.609 125.093 604.83C124.567 605.05 123.964 605.16 123.282 605.16C122.28 605.16 121.474 604.95 120.864 604.531C120.253 604.109 119.889 603.521 119.772 602.768L121.652 602.587C121.737 602.956 121.918 603.235 122.195 603.423C122.472 603.612 122.833 603.706 123.277 603.706C123.735 603.706 124.102 603.612 124.379 603.423C124.66 603.235 124.8 603.002 124.8 602.725C124.8 602.491 124.709 602.298 124.528 602.145C124.351 601.992 124.074 601.875 123.697 601.793L122.302 601.5C121.517 601.337 120.936 601.062 120.56 600.675C120.184 600.284 119.997 599.79 120.001 599.194C119.997 598.69 120.134 598.253 120.411 597.884C120.691 597.511 121.08 597.223 121.577 597.021C122.078 596.815 122.655 596.712 123.309 596.712C124.267 596.712 125.022 596.916 125.572 597.324C126.126 597.733 126.469 598.285 126.6 598.981ZM131.935 605.16C131.118 605.16 130.417 604.98 129.831 604.622C129.249 604.263 128.799 603.768 128.483 603.136C128.171 602.5 128.015 601.768 128.015 600.941C128.015 600.11 128.174 599.377 128.494 598.741C128.814 598.102 129.265 597.605 129.847 597.25C130.433 596.891 131.125 596.712 131.924 596.712C132.589 596.712 133.176 596.834 133.688 597.079C134.203 597.321 134.613 597.663 134.918 598.107C135.223 598.548 135.398 599.062 135.44 599.652H133.597C133.523 599.258 133.345 598.929 133.064 598.667C132.787 598.4 132.416 598.267 131.951 598.267C131.557 598.267 131.211 598.374 130.912 598.587C130.614 598.796 130.382 599.098 130.215 599.492C130.051 599.886 129.97 600.359 129.97 600.909C129.97 601.467 130.051 601.946 130.215 602.347C130.378 602.745 130.607 603.052 130.902 603.269C131.2 603.482 131.55 603.588 131.951 603.588C132.235 603.588 132.489 603.535 132.713 603.429C132.94 603.319 133.13 603.161 133.283 602.955C133.436 602.749 133.54 602.498 133.597 602.203H135.44C135.394 602.782 135.223 603.295 134.929 603.743C134.634 604.187 134.233 604.535 133.725 604.787C133.217 605.036 132.621 605.16 131.935 605.16ZM140.592 605.16C139.793 605.16 139.101 604.984 138.515 604.632C137.929 604.281 137.474 603.789 137.151 603.157C136.832 602.525 136.672 601.786 136.672 600.941C136.672 600.096 136.832 599.355 137.151 598.72C137.474 598.084 137.929 597.591 138.515 597.239C139.101 596.887 139.793 596.712 140.592 596.712C141.391 596.712 142.084 596.887 142.67 597.239C143.256 597.591 143.708 598.084 144.028 598.72C144.351 599.355 144.513 600.096 144.513 600.941C144.513 601.786 144.351 602.525 144.028 603.157C143.708 603.789 143.256 604.281 142.67 604.632C142.084 604.984 141.391 605.16 140.592 605.16ZM140.603 603.615C141.036 603.615 141.398 603.496 141.69 603.258C141.981 603.017 142.197 602.694 142.34 602.289C142.485 601.884 142.558 601.433 142.558 600.936C142.558 600.435 142.485 599.982 142.34 599.577C142.197 599.169 141.981 598.844 141.69 598.603C141.398 598.361 141.036 598.24 140.603 598.24C140.159 598.24 139.79 598.361 139.495 598.603C139.204 598.844 138.985 599.169 138.84 599.577C138.698 599.982 138.627 600.435 138.627 600.936C138.627 601.433 138.698 601.884 138.84 602.289C138.985 602.694 139.204 603.017 139.495 603.258C139.79 603.496 140.159 603.615 140.603 603.615ZM153.179 596.818L150.266 605H148.135L145.221 596.818H147.277L149.158 602.896H149.243L151.129 596.818H153.179ZM157.858 605.16C157.037 605.16 156.329 604.989 155.732 604.648C155.139 604.304 154.683 603.817 154.363 603.189C154.044 602.557 153.884 601.813 153.884 600.957C153.884 600.115 154.044 599.377 154.363 598.741C154.686 598.102 155.137 597.605 155.716 597.25C156.295 596.891 156.975 596.712 157.756 596.712C158.261 596.712 158.736 596.793 159.184 596.957C159.635 597.116 160.033 597.365 160.377 597.702C160.725 598.04 160.999 598.469 161.197 598.991C161.396 599.51 161.496 600.128 161.496 600.845V601.436H154.789V600.137H159.647C159.644 599.767 159.564 599.439 159.408 599.151C159.251 598.86 159.033 598.631 158.752 598.464C158.475 598.297 158.152 598.214 157.783 598.214C157.389 598.214 157.043 598.31 156.744 598.501C156.446 598.69 156.213 598.938 156.046 599.247C155.883 599.553 155.8 599.888 155.796 600.254V601.388C155.796 601.864 155.883 602.273 156.057 602.614C156.231 602.951 156.474 603.21 156.787 603.391C157.099 603.569 157.465 603.658 157.884 603.658C158.165 603.658 158.419 603.619 158.646 603.54C158.873 603.459 159.07 603.34 159.237 603.184C159.404 603.027 159.53 602.834 159.615 602.603L161.416 602.805C161.302 603.281 161.086 603.697 160.766 604.052C160.45 604.403 160.045 604.677 159.551 604.872C159.058 605.064 158.493 605.16 157.858 605.16ZM163.127 605V596.818H164.997V598.182H165.082C165.231 597.71 165.487 597.346 165.849 597.09C166.215 596.831 166.632 596.701 167.101 596.701C167.207 596.701 167.326 596.706 167.458 596.717C167.593 596.724 167.704 596.737 167.793 596.754V598.528C167.712 598.5 167.582 598.475 167.404 598.453C167.23 598.429 167.062 598.416 166.898 598.416C166.547 598.416 166.231 598.493 165.95 598.645C165.673 598.794 165.455 599.002 165.295 599.268C165.135 599.535 165.055 599.842 165.055 600.19V605H163.127ZM175.149 605.165C174.631 605.165 174.164 605.073 173.748 604.888C173.337 604.7 173.01 604.423 172.768 604.057C172.53 603.691 172.411 603.24 172.411 602.704C172.411 602.243 172.497 601.861 172.667 601.559C172.838 601.257 173.07 601.016 173.365 600.835C173.66 600.653 173.992 600.517 174.361 600.424C174.734 600.328 175.119 600.259 175.517 600.217C175.996 600.167 176.385 600.123 176.683 600.083C176.982 600.041 177.198 599.977 177.333 599.892C177.472 599.803 177.541 599.666 177.541 599.482V599.45C177.541 599.048 177.422 598.738 177.184 598.517C176.946 598.297 176.604 598.187 176.156 598.187C175.684 598.187 175.309 598.29 175.032 598.496C174.759 598.702 174.574 598.945 174.478 599.226L172.678 598.97C172.82 598.473 173.054 598.058 173.381 597.724C173.708 597.386 174.107 597.134 174.579 596.967C175.052 596.797 175.574 596.712 176.145 596.712C176.54 596.712 176.932 596.758 177.323 596.85C177.713 596.942 178.07 597.095 178.393 597.308C178.716 597.518 178.976 597.804 179.171 598.166C179.37 598.528 179.469 598.981 179.469 599.524V605H177.616V603.876H177.552C177.435 604.103 177.269 604.316 177.056 604.515C176.847 604.711 176.582 604.869 176.263 604.989C175.947 605.107 175.576 605.165 175.149 605.165ZM175.65 603.748C176.037 603.748 176.373 603.672 176.657 603.519C176.941 603.363 177.159 603.157 177.312 602.901C177.468 602.646 177.546 602.367 177.546 602.065V601.101C177.486 601.151 177.383 601.197 177.237 601.239C177.095 601.282 176.936 601.319 176.758 601.351C176.58 601.383 176.405 601.412 176.231 601.436C176.057 601.461 175.906 601.483 175.778 601.5C175.49 601.539 175.233 601.603 175.006 601.692C174.778 601.781 174.599 601.905 174.468 602.065C174.336 602.221 174.27 602.424 174.27 602.672C174.27 603.027 174.4 603.295 174.659 603.477C174.919 603.658 175.249 603.748 175.65 603.748ZM187.057 600.206V605H185.129V596.818H186.972V598.208H187.068C187.256 597.75 187.556 597.386 187.968 597.116C188.384 596.847 188.897 596.712 189.508 596.712C190.072 596.712 190.564 596.832 190.983 597.074C191.406 597.315 191.732 597.665 191.963 598.123C192.197 598.581 192.313 599.137 192.309 599.79V605H190.381V600.089C190.381 599.542 190.239 599.114 189.955 598.805C189.674 598.496 189.286 598.342 188.788 598.342C188.451 598.342 188.151 598.416 187.888 598.565C187.629 598.711 187.425 598.922 187.276 599.199C187.13 599.476 187.057 599.812 187.057 600.206ZM197.892 605.16C197.071 605.16 196.363 604.989 195.766 604.648C195.173 604.304 194.717 603.817 194.397 603.189C194.078 602.557 193.918 601.813 193.918 600.957C193.918 600.115 194.078 599.377 194.397 598.741C194.721 598.102 195.172 597.605 195.75 597.25C196.329 596.891 197.009 596.712 197.791 596.712C198.295 596.712 198.771 596.793 199.218 596.957C199.669 597.116 200.067 597.365 200.411 597.702C200.759 598.04 201.033 598.469 201.232 598.991C201.43 599.51 201.53 600.128 201.53 600.845V601.436H194.824V600.137H199.682C199.678 599.767 199.598 599.439 199.442 599.151C199.286 598.86 199.067 598.631 198.787 598.464C198.51 598.297 198.186 598.214 197.817 598.214C197.423 598.214 197.077 598.31 196.778 598.501C196.48 598.69 196.248 598.938 196.081 599.247C195.917 599.553 195.834 599.888 195.83 600.254V601.388C195.83 601.864 195.917 602.273 196.091 602.614C196.265 602.951 196.509 603.21 196.821 603.391C197.134 603.569 197.499 603.658 197.918 603.658C198.199 603.658 198.453 603.619 198.68 603.54C198.907 603.459 199.104 603.34 199.271 603.184C199.438 603.027 199.564 602.834 199.65 602.603L201.45 602.805C201.336 603.281 201.12 603.697 200.8 604.052C200.484 604.403 200.079 604.677 199.586 604.872C199.092 605.064 198.527 605.16 197.892 605.16ZM204.806 605L202.494 596.818H204.46L205.898 602.571H205.972L207.443 596.818H209.387L210.857 602.539H210.937L212.354 596.818H214.325L212.008 605H209.999L208.465 599.471H208.353L206.819 605H204.806ZM221.32 594.091V605H219.392V594.091H221.32ZM226.925 605.16C226.105 605.16 225.396 604.989 224.8 604.648C224.207 604.304 223.75 603.817 223.431 603.189C223.111 602.557 222.951 601.813 222.951 600.957C222.951 600.115 223.111 599.377 223.431 598.741C223.754 598.102 224.205 597.605 224.784 597.25C225.362 596.891 226.042 596.712 226.824 596.712C227.328 596.712 227.804 596.793 228.251 596.957C228.702 597.116 229.1 597.365 229.444 597.702C229.792 598.04 230.066 598.469 230.265 598.991C230.464 599.51 230.563 600.128 230.563 600.845V601.436H223.857V600.137H228.715C228.711 599.767 228.631 599.439 228.475 599.151C228.319 598.86 228.1 598.631 227.82 598.464C227.543 598.297 227.22 598.214 226.85 598.214C226.456 598.214 226.11 598.31 225.812 598.501C225.513 598.69 225.281 598.938 225.114 599.247C224.951 599.553 224.867 599.888 224.864 600.254V601.388C224.864 601.864 224.951 602.273 225.125 602.614C225.299 602.951 225.542 603.21 225.854 603.391C226.167 603.569 226.533 603.658 226.952 603.658C227.232 603.658 227.486 603.619 227.713 603.54C227.941 603.459 228.138 603.34 228.305 603.184C228.471 603.027 228.598 602.834 228.683 602.603L230.483 602.805C230.37 603.281 230.153 603.697 229.833 604.052C229.517 604.403 229.112 604.677 228.619 604.872C228.125 605.064 227.561 605.16 226.925 605.16ZM239.268 596.818L236.355 605H234.224L231.31 596.818H233.366L235.247 602.896H235.332L237.217 596.818H239.268ZM243.946 605.16C243.126 605.16 242.418 604.989 241.821 604.648C241.228 604.304 240.772 603.817 240.452 603.189C240.133 602.557 239.973 601.813 239.973 600.957C239.973 600.115 240.133 599.377 240.452 598.741C240.775 598.102 241.226 597.605 241.805 597.25C242.384 596.891 243.064 596.712 243.845 596.712C244.349 596.712 244.825 596.793 245.273 596.957C245.724 597.116 246.121 597.365 246.466 597.702C246.814 598.04 247.087 598.469 247.286 598.991C247.485 599.51 247.585 600.128 247.585 600.845V601.436H240.878V600.137H245.736C245.733 599.767 245.653 599.439 245.496 599.151C245.34 598.86 245.122 598.631 244.841 598.464C244.564 598.297 244.241 598.214 243.872 598.214C243.478 598.214 243.131 598.31 242.833 598.501C242.535 598.69 242.302 598.938 242.135 599.247C241.972 599.553 241.889 599.888 241.885 600.254V601.388C241.885 601.864 241.972 602.273 242.146 602.614C242.32 602.951 242.563 603.21 242.876 603.391C243.188 603.569 243.554 603.658 243.973 603.658C244.254 603.658 244.508 603.619 244.735 603.54C244.962 603.459 245.159 603.34 245.326 603.184C245.493 603.027 245.619 602.834 245.704 602.603L247.505 602.805C247.391 603.281 247.174 603.697 246.855 604.052C246.539 604.403 246.134 604.677 245.64 604.872C245.147 605.064 244.582 605.16 243.946 605.16ZM251.144 594.091V605H249.216V594.091H251.144ZM260.417 605.16C259.618 605.16 258.925 604.984 258.339 604.632C257.753 604.281 257.299 603.789 256.976 603.157C256.656 602.525 256.496 601.786 256.496 600.941C256.496 600.096 256.656 599.355 256.976 598.72C257.299 598.084 257.753 597.591 258.339 597.239C258.925 596.887 259.618 596.712 260.417 596.712C261.216 596.712 261.908 596.887 262.494 597.239C263.08 597.591 263.533 598.084 263.852 598.72C264.175 599.355 264.337 600.096 264.337 600.941C264.337 601.786 264.175 602.525 263.852 603.157C263.533 603.789 263.08 604.281 262.494 604.632C261.908 604.984 261.216 605.16 260.417 605.16ZM260.427 603.615C260.86 603.615 261.223 603.496 261.514 603.258C261.805 603.017 262.022 602.694 262.164 602.289C262.309 601.884 262.382 601.433 262.382 600.936C262.382 600.435 262.309 599.982 262.164 599.577C262.022 599.169 261.805 598.844 261.514 598.603C261.223 598.361 260.86 598.24 260.427 598.24C259.983 598.24 259.614 598.361 259.319 598.603C259.028 598.844 258.81 599.169 258.664 599.577C258.522 599.982 258.451 600.435 258.451 600.936C258.451 601.433 258.522 601.884 258.664 602.289C258.81 602.694 259.028 603.017 259.319 603.258C259.614 603.496 259.983 603.615 260.427 603.615ZM270.118 596.818V598.31H265.281V596.818H270.118ZM266.49 605V596.046C266.49 595.495 266.604 595.037 266.831 594.672C267.062 594.306 267.371 594.032 267.758 593.851C268.145 593.67 268.575 593.58 269.047 593.58C269.381 593.58 269.678 593.606 269.937 593.659C270.196 593.713 270.388 593.761 270.512 593.803L270.129 595.295C270.047 595.27 269.944 595.245 269.82 595.22C269.695 595.192 269.557 595.178 269.404 595.178C269.045 595.178 268.792 595.265 268.642 595.439C268.497 595.609 268.424 595.854 268.424 596.174V605H266.49ZM140.957 626.068V614.818H142.853V616.171H142.965C143.064 615.972 143.204 615.761 143.386 615.537C143.567 615.31 143.812 615.116 144.121 614.957C144.43 614.793 144.824 614.712 145.303 614.712C145.935 614.712 146.505 614.873 147.013 615.196C147.524 615.516 147.929 615.99 148.228 616.619C148.529 617.244 148.68 618.011 148.68 618.92C148.68 619.818 148.533 620.582 148.238 621.21C147.943 621.839 147.542 622.318 147.034 622.648C146.527 622.979 145.951 623.144 145.309 623.144C144.84 623.144 144.451 623.066 144.142 622.909C143.833 622.753 143.584 622.565 143.396 622.345C143.212 622.121 143.068 621.91 142.965 621.711H142.885V626.068H140.957ZM142.848 618.909C142.848 619.438 142.922 619.902 143.071 620.299C143.224 620.697 143.442 621.008 143.726 621.232C144.014 621.452 144.362 621.562 144.771 621.562C145.197 621.562 145.554 621.448 145.841 621.221C146.129 620.99 146.345 620.676 146.491 620.278C146.64 619.877 146.715 619.42 146.715 618.909C146.715 618.401 146.642 617.95 146.496 617.556C146.351 617.162 146.134 616.853 145.847 616.629C145.559 616.406 145.2 616.294 144.771 616.294C144.359 616.294 144.009 616.402 143.721 616.619C143.434 616.835 143.215 617.139 143.066 617.529C142.92 617.92 142.848 618.38 142.848 618.909ZM150.332 623V614.818H152.201V616.182H152.286C152.436 615.71 152.691 615.346 153.054 615.09C153.419 614.831 153.837 614.701 154.305 614.701C154.412 614.701 154.531 614.706 154.662 614.717C154.797 614.724 154.909 614.737 154.998 614.754V616.528C154.916 616.5 154.786 616.475 154.609 616.453C154.435 616.429 154.266 616.416 154.103 616.416C153.751 616.416 153.435 616.493 153.155 616.645C152.878 616.794 152.659 617.002 152.5 617.268C152.34 617.535 152.26 617.842 152.26 618.19V623H150.332ZM159.511 623.16C158.712 623.16 158.019 622.984 157.433 622.632C156.847 622.281 156.393 621.789 156.07 621.157C155.75 620.525 155.59 619.786 155.59 618.941C155.59 618.096 155.75 617.355 156.07 616.72C156.393 616.084 156.847 615.591 157.433 615.239C158.019 614.887 158.712 614.712 159.511 614.712C160.31 614.712 161.002 614.887 161.588 615.239C162.174 615.591 162.627 616.084 162.947 616.72C163.27 617.355 163.431 618.096 163.431 618.941C163.431 619.786 163.27 620.525 162.947 621.157C162.627 621.789 162.174 622.281 161.588 622.632C161.002 622.984 160.31 623.16 159.511 623.16ZM159.521 621.615C159.955 621.615 160.317 621.496 160.608 621.258C160.899 621.017 161.116 620.694 161.258 620.289C161.404 619.884 161.476 619.433 161.476 618.936C161.476 618.435 161.404 617.982 161.258 617.577C161.116 617.169 160.899 616.844 160.608 616.603C160.317 616.361 159.955 616.24 159.521 616.24C159.078 616.24 158.708 616.361 158.414 616.603C158.122 616.844 157.904 617.169 157.758 617.577C157.616 617.982 157.545 618.435 157.545 618.936C157.545 619.433 157.616 619.884 157.758 620.289C157.904 620.694 158.122 621.017 158.414 621.258C158.708 621.496 159.078 621.615 159.521 621.615ZM168.104 623.144C167.461 623.144 166.886 622.979 166.378 622.648C165.87 622.318 165.469 621.839 165.174 621.21C164.88 620.582 164.732 619.818 164.732 618.92C164.732 618.011 164.881 617.244 165.18 616.619C165.482 615.99 165.888 615.516 166.4 615.196C166.911 614.873 167.481 614.712 168.109 614.712C168.589 614.712 168.983 614.793 169.292 614.957C169.601 615.116 169.846 615.31 170.027 615.537C170.208 615.761 170.348 615.972 170.448 616.171H170.528V612.091H172.461V623H170.565V621.711H170.448C170.348 621.91 170.205 622.121 170.016 622.345C169.828 622.565 169.58 622.753 169.271 622.909C168.962 623.066 168.573 623.144 168.104 623.144ZM168.642 621.562C169.051 621.562 169.399 621.452 169.686 621.232C169.974 621.008 170.192 620.697 170.341 620.299C170.491 619.902 170.565 619.438 170.565 618.909C170.565 618.38 170.491 617.92 170.341 617.529C170.196 617.139 169.979 616.835 169.691 616.619C169.407 616.402 169.058 616.294 168.642 616.294C168.212 616.294 167.854 616.406 167.566 616.629C167.278 616.853 167.062 617.162 166.916 617.556C166.771 617.95 166.698 618.401 166.698 618.909C166.698 619.42 166.771 619.877 166.916 620.278C167.065 620.676 167.284 620.99 167.571 621.221C167.863 621.448 168.22 621.562 168.642 621.562ZM179.731 619.559V614.818H181.659V623H179.79V621.546H179.704C179.52 622.004 179.216 622.379 178.794 622.67C178.374 622.961 177.858 623.107 177.243 623.107C176.707 623.107 176.233 622.988 175.821 622.75C175.413 622.508 175.093 622.158 174.862 621.7C174.632 621.239 174.516 620.681 174.516 620.028V614.818H176.444V619.729C176.444 620.248 176.586 620.66 176.871 620.965C177.155 621.271 177.528 621.423 177.989 621.423C178.273 621.423 178.548 621.354 178.815 621.216C179.081 621.077 179.3 620.871 179.47 620.598C179.644 620.321 179.731 619.974 179.731 619.559ZM187.211 623.16C186.394 623.16 185.693 622.98 185.107 622.622C184.525 622.263 184.075 621.768 183.759 621.136C183.447 620.5 183.291 619.768 183.291 618.941C183.291 618.11 183.45 617.377 183.77 616.741C184.09 616.102 184.541 615.605 185.123 615.25C185.709 614.891 186.401 614.712 187.2 614.712C187.864 614.712 188.452 614.834 188.964 615.079C189.478 615.321 189.889 615.663 190.194 616.107C190.499 616.548 190.673 617.062 190.716 617.652H188.873C188.798 617.258 188.621 616.929 188.34 616.667C188.063 616.4 187.692 616.267 187.227 616.267C186.833 616.267 186.487 616.374 186.188 616.587C185.89 616.796 185.657 617.098 185.491 617.492C185.327 617.886 185.245 618.359 185.245 618.909C185.245 619.467 185.327 619.946 185.491 620.347C185.654 620.745 185.883 621.052 186.178 621.269C186.476 621.482 186.826 621.588 187.227 621.588C187.511 621.588 187.765 621.535 187.989 621.429C188.216 621.319 188.406 621.161 188.559 620.955C188.711 620.749 188.816 620.498 188.873 620.203H190.716C190.67 620.782 190.499 621.295 190.205 621.743C189.91 622.187 189.509 622.535 189.001 622.787C188.493 623.036 187.896 623.16 187.211 623.16ZM196.385 614.818V616.31H191.681V614.818H196.385ZM192.843 612.858H194.771V620.539C194.771 620.798 194.81 620.997 194.888 621.136C194.97 621.271 195.076 621.363 195.208 621.413C195.339 621.462 195.485 621.487 195.645 621.487C195.765 621.487 195.875 621.478 195.975 621.461C196.078 621.443 196.156 621.427 196.209 621.413L196.534 622.92C196.431 622.956 196.284 622.995 196.092 623.037C195.904 623.08 195.673 623.105 195.4 623.112C194.917 623.126 194.482 623.053 194.094 622.893C193.707 622.73 193.4 622.478 193.173 622.137C192.949 621.796 192.839 621.37 192.843 620.859V612.858ZM197.998 623V614.818H199.926V623H197.998ZM198.967 613.657C198.662 613.657 198.399 613.556 198.179 613.353C197.959 613.147 197.848 612.901 197.848 612.613C197.848 612.322 197.959 612.075 198.179 611.873C198.399 611.667 198.662 611.564 198.967 611.564C199.276 611.564 199.539 611.667 199.755 611.873C199.976 612.075 200.086 612.322 200.086 612.613C200.086 612.901 199.976 613.147 199.755 613.353C199.539 613.556 199.276 613.657 198.967 613.657ZM209.217 614.818L206.303 623H204.173L201.259 614.818H203.315L205.195 620.896H205.281L207.166 614.818H209.217ZM210.551 623V614.818H212.48V623H210.551ZM211.521 613.657C211.215 613.657 210.953 613.556 210.732 613.353C210.512 613.147 210.402 612.901 210.402 612.613C210.402 612.322 210.512 612.075 210.732 611.873C210.953 611.667 211.215 611.564 211.521 611.564C211.83 611.564 212.093 611.667 212.309 611.873C212.529 612.075 212.639 612.322 212.639 612.613C212.639 612.901 212.529 613.147 212.309 613.353C212.093 613.556 211.83 613.657 211.521 613.657ZM218.548 614.818V616.31H213.845V614.818H218.548ZM215.006 612.858H216.934V620.539C216.934 620.798 216.973 620.997 217.051 621.136C217.133 621.271 217.239 621.363 217.371 621.413C217.502 621.462 217.648 621.487 217.808 621.487C217.928 621.487 218.038 621.478 218.138 621.461C218.241 621.443 218.319 621.427 218.372 621.413L218.697 622.92C218.594 622.956 218.447 622.995 218.255 623.037C218.067 623.08 217.836 623.105 217.563 623.112C217.08 623.126 216.645 623.053 216.258 622.893C215.87 622.73 215.563 622.478 215.336 622.137C215.112 621.796 215.002 621.37 215.006 620.859V612.858ZM221.359 626.068C221.096 626.068 220.853 626.047 220.629 626.004C220.409 625.965 220.233 625.919 220.102 625.866L220.55 624.364C220.83 624.445 221.08 624.484 221.301 624.481C221.521 624.477 221.714 624.408 221.881 624.273C222.052 624.142 222.195 623.922 222.313 623.613L222.478 623.17L219.511 614.818H221.556L223.442 620.997H223.527L225.418 614.818H227.469L224.193 623.991C224.04 624.424 223.838 624.795 223.586 625.104C223.334 625.417 223.025 625.654 222.659 625.818C222.297 625.985 221.863 626.068 221.359 626.068ZM229.478 623.117C229.155 623.117 228.878 623.004 228.647 622.776C228.417 622.549 228.303 622.272 228.307 621.945C228.303 621.626 228.417 621.352 228.647 621.125C228.878 620.898 229.155 620.784 229.478 620.784C229.791 620.784 230.063 620.898 230.293 621.125C230.528 621.352 230.647 621.626 230.65 621.945C230.647 622.162 230.59 622.359 230.48 622.537C230.373 622.714 230.231 622.856 230.054 622.963C229.88 623.066 229.688 623.117 229.478 623.117Z" fill="#C4C4C4"/>
<path d="M143.22 568L139.058 553.455H142.417L144.825 563.561H144.946L147.602 553.455H150.479L153.128 563.582H153.256L155.663 553.455H159.023L154.861 568H151.863L149.094 558.49H148.98L146.217 568H143.22ZM164.411 568.213C163.289 568.213 162.323 567.986 161.514 567.531C160.709 567.072 160.088 566.423 159.653 565.585C159.217 564.742 158.999 563.746 158.999 562.595C158.999 561.473 159.217 560.488 159.653 559.641C160.088 558.793 160.702 558.133 161.492 557.659C162.288 557.186 163.221 556.949 164.291 556.949C165.01 556.949 165.68 557.065 166.301 557.297C166.926 557.524 167.47 557.867 167.934 558.327C168.403 558.786 168.767 559.364 169.028 560.06C169.288 560.751 169.419 561.561 169.419 562.489V563.32H160.207V561.445H166.57C166.57 561.009 166.476 560.623 166.286 560.287C166.097 559.951 165.834 559.688 165.498 559.499C165.167 559.304 164.781 559.207 164.34 559.207C163.881 559.207 163.474 559.314 163.119 559.527C162.768 559.735 162.494 560.017 162.295 560.372C162.096 560.723 161.994 561.113 161.99 561.544V563.327C161.99 563.866 162.089 564.333 162.288 564.726C162.491 565.119 162.778 565.422 163.147 565.635C163.517 565.848 163.954 565.955 164.461 565.955C164.797 565.955 165.105 565.907 165.384 565.812C165.664 565.718 165.903 565.576 166.102 565.386C166.301 565.197 166.452 564.965 166.556 564.69L169.355 564.875C169.213 565.547 168.921 566.134 168.481 566.636C168.045 567.134 167.482 567.522 166.791 567.801C166.104 568.076 165.311 568.213 164.411 568.213ZM174.419 553.455V568H171.393V553.455H174.419ZM181.771 568.213C180.654 568.213 179.693 567.976 178.888 567.503C178.087 567.025 177.472 566.362 177.041 565.514C176.615 564.667 176.402 563.691 176.402 562.588C176.402 561.471 176.617 560.491 177.048 559.648C177.484 558.8 178.102 558.14 178.902 557.666C179.702 557.188 180.654 556.949 181.757 556.949C182.709 556.949 183.542 557.122 184.257 557.467C184.972 557.813 185.538 558.298 185.954 558.923C186.371 559.548 186.601 560.282 186.643 561.125H183.788C183.708 560.58 183.495 560.143 183.149 559.811C182.808 559.475 182.361 559.307 181.807 559.307C181.338 559.307 180.928 559.435 180.578 559.69C180.232 559.941 179.962 560.308 179.768 560.791C179.574 561.274 179.477 561.859 179.477 562.545C179.477 563.241 179.572 563.833 179.761 564.321C179.955 564.809 180.228 565.18 180.578 565.436C180.928 565.692 181.338 565.82 181.807 565.82C182.152 565.82 182.462 565.749 182.737 565.607C183.016 565.464 183.246 565.259 183.426 564.989C183.611 564.714 183.731 564.385 183.788 564.001H186.643C186.596 564.835 186.369 565.569 185.961 566.203C185.559 566.833 185.003 567.325 184.292 567.68C183.582 568.036 182.742 568.213 181.771 568.213ZM193.509 568.213C192.406 568.213 191.452 567.979 190.647 567.51C189.847 567.036 189.229 566.378 188.794 565.536C188.358 564.688 188.14 563.705 188.14 562.588C188.14 561.461 188.358 560.476 188.794 559.634C189.229 558.786 189.847 558.128 190.647 557.659C191.452 557.186 192.406 556.949 193.509 556.949C194.613 556.949 195.564 557.186 196.365 557.659C197.169 558.128 197.79 558.786 198.225 559.634C198.661 560.476 198.879 561.461 198.879 562.588C198.879 563.705 198.661 564.688 198.225 565.536C197.79 566.378 197.169 567.036 196.365 567.51C195.564 567.979 194.613 568.213 193.509 568.213ZM193.524 565.869C194.026 565.869 194.445 565.727 194.781 565.443C195.117 565.154 195.37 564.761 195.541 564.264C195.716 563.767 195.803 563.201 195.803 562.567C195.803 561.932 195.716 561.366 195.541 560.869C195.37 560.372 195.117 559.979 194.781 559.69C194.445 559.402 194.026 559.257 193.524 559.257C193.017 559.257 192.591 559.402 192.245 559.69C191.904 559.979 191.646 560.372 191.471 560.869C191.301 561.366 191.215 561.932 191.215 562.567C191.215 563.201 191.301 563.767 191.471 564.264C191.646 564.761 191.904 565.154 192.245 565.443C192.591 565.727 193.017 565.869 193.524 565.869ZM200.846 568V557.091H203.73V559.016H203.857C204.085 558.376 204.463 557.872 204.994 557.503C205.524 557.134 206.159 556.949 206.897 556.949C207.645 556.949 208.282 557.136 208.808 557.51C209.333 557.879 209.684 558.381 209.859 559.016H209.972C210.195 558.391 210.597 557.891 211.18 557.517C211.767 557.138 212.461 556.949 213.261 556.949C214.279 556.949 215.105 557.273 215.74 557.922C216.379 558.566 216.698 559.48 216.698 560.663V568H213.68V561.26C213.68 560.654 213.519 560.199 213.197 559.896C212.875 559.593 212.472 559.442 211.99 559.442C211.44 559.442 211.012 559.617 210.704 559.967C210.396 560.313 210.242 560.77 210.242 561.338V568H207.309V561.196C207.309 560.661 207.155 560.235 206.847 559.918C206.544 559.6 206.144 559.442 205.647 559.442C205.311 559.442 205.008 559.527 204.738 559.697C204.473 559.863 204.262 560.098 204.106 560.401C203.95 560.699 203.872 561.049 203.872 561.452V568H200.846ZM224.06 568.213C222.938 568.213 221.972 567.986 221.162 567.531C220.357 567.072 219.737 566.423 219.301 565.585C218.866 564.742 218.648 563.746 218.648 562.595C218.648 561.473 218.866 560.488 219.301 559.641C219.737 558.793 220.35 558.133 221.141 557.659C221.936 557.186 222.869 556.949 223.939 556.949C224.659 556.949 225.329 557.065 225.949 557.297C226.574 557.524 227.119 557.867 227.583 558.327C228.051 558.786 228.416 559.364 228.676 560.06C228.937 560.751 229.067 561.561 229.067 562.489V563.32H219.855V561.445H226.219C226.219 561.009 226.124 560.623 225.935 560.287C225.745 559.951 225.483 559.688 225.146 559.499C224.815 559.304 224.429 559.207 223.989 559.207C223.53 559.207 223.122 559.314 222.767 559.527C222.417 559.735 222.142 560.017 221.943 560.372C221.744 560.723 221.643 561.113 221.638 561.544V563.327C221.638 563.866 221.737 564.333 221.936 564.726C222.14 565.119 222.426 565.422 222.796 565.635C223.165 565.848 223.603 565.955 224.11 565.955C224.446 565.955 224.753 565.907 225.033 565.812C225.312 565.718 225.551 565.576 225.75 565.386C225.949 565.197 226.101 564.965 226.205 564.69L229.003 564.875C228.861 565.547 228.57 566.134 228.129 566.636C227.694 567.134 227.13 567.522 226.439 567.801C225.753 568.076 224.959 568.213 224.06 568.213ZM234.656 553.455L234.379 563.639H231.78L231.496 553.455H234.656ZM233.08 568.185C232.611 568.185 232.209 568.019 231.872 567.688C231.536 567.351 231.37 566.949 231.375 566.48C231.37 566.016 231.536 565.618 231.872 565.287C232.209 564.955 232.611 564.79 233.08 564.79C233.53 564.79 233.925 564.955 234.266 565.287C234.607 565.618 234.78 566.016 234.784 566.48C234.78 566.793 234.697 567.079 234.536 567.339C234.379 567.595 234.173 567.801 233.918 567.957C233.662 568.109 233.383 568.185 233.08 568.185Z" fill="#C4C4C4"/>
<rect x="20" y="47" width="335" height="449" fill="#C4C4C4"/>
<rect x="106" y="693" width="163" height="37" rx="8" fill="#D9D9D9"/>
<path d="M158.607 710C158.514 709.662 158.378 709.345 158.199 709.05C158.02 708.752 157.798 708.492 157.533 708.27C157.271 708.045 156.968 707.869 156.623 707.743C156.282 707.617 155.901 707.554 155.48 707.554C154.817 707.554 154.224 707.726 153.7 708.071C153.176 708.416 152.762 708.913 152.457 709.562C152.156 710.212 152.005 710.994 152.005 711.909C152.005 712.821 152.157 713.601 152.462 714.251C152.767 714.9 153.185 715.399 153.715 715.747C154.249 716.092 154.858 716.264 155.544 716.264C156.171 716.264 156.724 716.125 157.205 715.847C157.686 715.568 158.06 715.17 158.329 714.653C158.6 714.136 158.733 713.522 158.726 712.809L159.025 712.903H155.763V712.068H159.631V712.903C159.631 713.772 159.455 714.522 159.104 715.156C158.753 715.789 158.271 716.277 157.657 716.622C157.044 716.967 156.34 717.139 155.544 717.139C154.656 717.139 153.879 716.925 153.213 716.498C152.547 716.067 152.028 715.46 151.657 714.678C151.289 713.893 151.105 712.97 151.105 711.909C151.105 711.11 151.211 710.389 151.423 709.746C151.635 709.103 151.935 708.553 152.323 708.096C152.714 707.638 153.176 707.289 153.71 707.047C154.244 706.802 154.834 706.679 155.48 706.679C156.037 706.679 156.545 706.767 157.006 706.942C157.47 707.118 157.878 707.36 158.229 707.668C158.584 707.973 158.874 708.326 159.099 708.727C159.328 709.125 159.482 709.549 159.562 710H158.607ZM164.843 717.159C164.13 717.159 163.514 716.993 162.993 716.662C162.473 716.327 162.07 715.865 161.785 715.275C161.503 714.682 161.362 713.999 161.362 713.227C161.362 712.458 161.503 711.775 161.785 711.178C162.07 710.578 162.463 710.109 162.963 709.771C163.467 709.43 164.049 709.259 164.708 709.259C165.123 709.259 165.522 709.335 165.907 709.488C166.291 709.637 166.636 709.867 166.941 710.179C167.249 710.487 167.492 710.877 167.671 711.347C167.85 711.815 167.94 712.368 167.94 713.008V713.445H161.974V712.665H167.035C167.035 712.174 166.936 711.733 166.737 711.342C166.541 710.948 166.268 710.636 165.916 710.408C165.568 710.179 165.166 710.065 164.708 710.065C164.224 710.065 163.799 710.194 163.431 710.452C163.063 710.711 162.774 711.052 162.566 711.477C162.36 711.901 162.256 712.365 162.252 712.869V713.336C162.252 713.942 162.357 714.473 162.566 714.927C162.778 715.378 163.078 715.727 163.465 715.976C163.853 716.224 164.312 716.349 164.843 716.349C165.204 716.349 165.52 716.292 165.792 716.18C166.067 716.067 166.298 715.916 166.483 715.727C166.672 715.535 166.815 715.325 166.911 715.096L167.751 715.369C167.635 715.691 167.444 715.987 167.179 716.259C166.917 716.531 166.589 716.75 166.195 716.915C165.804 717.078 165.353 717.159 164.843 717.159ZM172.898 709.364V710.134H169.254V709.364H172.898ZM170.392 707.534H171.282V715.006C171.282 715.325 171.337 715.575 171.446 715.757C171.555 715.936 171.698 716.064 171.874 716.14C172.049 716.213 172.237 716.249 172.435 716.249C172.551 716.249 172.651 716.243 172.734 716.229C172.817 716.213 172.89 716.196 172.953 716.18L173.141 716.98C173.055 717.013 172.949 717.043 172.823 717.07C172.697 717.099 172.542 717.114 172.356 717.114C172.031 717.114 171.718 717.043 171.416 716.901C171.118 716.758 170.873 716.546 170.68 716.264C170.488 715.982 170.392 715.633 170.392 715.215V707.534ZM183.976 711.039L183.165 711.268C183.086 711.039 182.973 710.832 182.827 710.646C182.681 710.461 182.491 710.313 182.256 710.204C182.024 710.094 181.735 710.04 181.391 710.04C180.873 710.04 180.449 710.162 180.118 710.408C179.786 710.653 179.621 710.969 179.621 711.357C179.621 711.685 179.733 711.952 179.959 712.158C180.187 712.36 180.539 712.521 181.013 712.64L182.166 712.923C182.806 713.079 183.285 713.326 183.603 713.664C183.924 714.002 184.085 714.426 184.085 714.937C184.085 715.368 183.966 715.75 183.727 716.085C183.489 716.42 183.155 716.683 182.728 716.876C182.304 717.065 181.811 717.159 181.251 717.159C180.506 717.159 179.891 716.992 179.407 716.657C178.923 716.319 178.613 715.832 178.477 715.195L179.327 714.987C179.437 715.441 179.65 715.784 179.969 716.016C180.29 716.248 180.713 716.364 181.236 716.364C181.823 716.364 182.292 716.233 182.643 715.971C182.995 715.706 183.17 715.374 183.17 714.977C183.17 714.668 183.068 714.41 182.862 714.201C182.657 713.989 182.345 713.833 181.927 713.734L180.68 713.435C180.017 713.276 179.526 713.024 179.208 712.68C178.89 712.335 178.731 711.907 178.731 711.397C178.731 710.976 178.845 710.607 179.074 710.288C179.302 709.967 179.617 709.715 180.018 709.533C180.419 709.35 180.877 709.259 181.391 709.259C182.09 709.259 182.648 709.418 183.066 709.737C183.487 710.051 183.79 710.486 183.976 711.039ZM189.031 709.364V710.134H185.386V709.364H189.031ZM186.525 707.534H187.415V715.006C187.415 715.325 187.47 715.575 187.579 715.757C187.688 715.936 187.831 716.064 188.006 716.14C188.182 716.213 188.369 716.249 188.568 716.249C188.684 716.249 188.784 716.243 188.867 716.229C188.949 716.213 189.022 716.196 189.085 716.18L189.274 716.98C189.188 717.013 189.082 717.043 188.956 717.07C188.83 717.099 188.674 717.114 188.489 717.114C188.164 717.114 187.851 717.043 187.549 716.901C187.251 716.758 187.006 716.546 186.813 716.264C186.621 715.982 186.525 715.633 186.525 715.215V707.534ZM193.173 717.174C192.713 717.174 192.292 717.085 191.91 716.906C191.529 716.723 191.226 716.461 191.001 716.12C190.775 715.775 190.663 715.358 190.663 714.867C190.663 714.489 190.734 714.171 190.876 713.913C191.019 713.654 191.221 713.442 191.483 713.276C191.745 713.111 192.055 712.98 192.413 712.884C192.771 712.787 193.165 712.713 193.596 712.66C194.023 712.607 194.385 712.56 194.68 712.521C194.978 712.481 195.205 712.418 195.361 712.332C195.516 712.246 195.594 712.106 195.594 711.914V711.735C195.594 711.215 195.439 710.805 195.127 710.507C194.819 710.205 194.375 710.055 193.795 710.055C193.244 710.055 192.795 710.176 192.447 710.418C192.103 710.66 191.861 710.945 191.722 711.273L190.881 710.969C191.054 710.552 191.292 710.219 191.597 709.97C191.902 709.718 192.244 709.538 192.621 709.428C192.999 709.316 193.382 709.259 193.77 709.259C194.061 709.259 194.365 709.297 194.68 709.374C194.998 709.45 195.293 709.582 195.565 709.771C195.836 709.957 196.057 710.217 196.226 710.552C196.395 710.883 196.479 711.304 196.479 711.815V717H195.594V715.792H195.54C195.434 716.017 195.276 716.236 195.067 716.448C194.859 716.66 194.597 716.834 194.282 716.97C193.967 717.106 193.597 717.174 193.173 717.174ZM193.293 716.364C193.763 716.364 194.171 716.259 194.516 716.05C194.86 715.842 195.125 715.565 195.311 715.22C195.5 714.872 195.594 714.489 195.594 714.072V712.968C195.528 713.031 195.417 713.087 195.261 713.137C195.109 713.187 194.931 713.232 194.729 713.271C194.53 713.308 194.332 713.339 194.133 713.366C193.934 713.392 193.755 713.415 193.596 713.435C193.165 713.488 192.797 713.571 192.492 713.684C192.187 713.797 191.954 713.952 191.791 714.151C191.629 714.347 191.547 714.599 191.547 714.907C191.547 715.371 191.713 715.731 192.045 715.986C192.376 716.238 192.792 716.364 193.293 716.364ZM198.833 717V709.364H199.693V710.537H199.758C199.911 710.152 200.176 709.843 200.554 709.607C200.935 709.369 201.366 709.249 201.846 709.249C201.919 709.249 202 709.251 202.09 709.254C202.179 709.258 202.254 709.261 202.313 709.264V710.164C202.274 710.157 202.204 710.147 202.105 710.134C202.005 710.121 201.898 710.114 201.782 710.114C201.384 710.114 201.029 710.199 200.718 710.368C200.409 710.534 200.166 710.764 199.987 711.059C199.808 711.354 199.718 711.69 199.718 712.068V717H198.833ZM207.31 709.364V710.134H203.666V709.364H207.31ZM204.804 707.534H205.694V715.006C205.694 715.325 205.749 715.575 205.858 715.757C205.968 715.936 206.11 716.064 206.286 716.14C206.461 716.213 206.649 716.249 206.848 716.249C206.964 716.249 207.063 716.243 207.146 716.229C207.229 716.213 207.302 716.196 207.365 716.18L207.554 716.98C207.467 717.013 207.361 717.043 207.235 717.07C207.109 717.099 206.954 717.114 206.768 717.114C206.443 717.114 206.13 717.043 205.828 716.901C205.53 716.758 205.285 716.546 205.093 716.264C204.9 715.982 204.804 715.633 204.804 715.215V707.534ZM212.325 717.159C211.612 717.159 210.996 716.993 210.476 716.662C209.955 716.327 209.553 715.865 209.267 715.275C208.986 714.682 208.845 713.999 208.845 713.227C208.845 712.458 208.986 711.775 209.267 711.178C209.553 710.578 209.945 710.109 210.446 709.771C210.95 709.43 211.531 709.259 212.191 709.259C212.605 709.259 213.004 709.335 213.389 709.488C213.773 709.637 214.118 709.867 214.423 710.179C214.731 710.487 214.975 710.877 215.154 711.347C215.333 711.815 215.422 712.368 215.422 713.008V713.445H209.456V712.665H214.517C214.517 712.174 214.418 711.733 214.219 711.342C214.024 710.948 213.75 710.636 213.399 710.408C213.051 710.179 212.648 710.065 212.191 710.065C211.707 710.065 211.281 710.194 210.913 710.452C210.545 710.711 210.257 711.052 210.048 711.477C209.843 711.901 209.738 712.365 209.735 712.869V713.336C209.735 713.942 209.839 714.473 210.048 714.927C210.26 715.378 210.56 715.727 210.948 715.976C211.336 716.224 211.795 716.349 212.325 716.349C212.686 716.349 213.003 716.292 213.275 716.18C213.55 716.067 213.78 715.916 213.966 715.727C214.155 715.535 214.297 715.325 214.393 715.096L215.233 715.369C215.117 715.691 214.927 715.987 214.662 716.259C214.4 716.531 214.072 716.75 213.677 716.915C213.286 717.078 212.835 717.159 212.325 717.159ZM220.122 717.159C219.495 717.159 218.947 716.993 218.476 716.662C218.005 716.33 217.638 715.868 217.372 715.275C217.111 714.682 216.98 713.991 216.98 713.202C216.98 712.416 217.111 711.728 217.372 711.138C217.638 710.545 218.007 710.085 218.481 709.756C218.955 709.425 219.507 709.259 220.137 709.259C220.601 709.259 220.987 709.342 221.295 709.508C221.603 709.67 221.85 709.872 222.036 710.114C222.221 710.356 222.366 710.592 222.468 710.82H222.548V706.818H223.438V717H222.573V715.583H222.468C222.366 715.815 222.22 716.054 222.031 716.299C221.842 716.541 221.592 716.745 221.28 716.911C220.972 717.076 220.586 717.159 220.122 717.159ZM220.226 716.349C220.72 716.349 221.141 716.214 221.489 715.946C221.837 715.674 222.102 715.301 222.284 714.827C222.47 714.35 222.563 713.803 222.563 713.187C222.563 712.577 222.472 712.038 222.289 711.571C222.107 711.1 221.842 710.732 221.494 710.467C221.146 710.199 220.723 710.065 220.226 710.065C219.716 710.065 219.285 710.204 218.934 710.482C218.585 710.757 218.32 711.13 218.138 711.601C217.959 712.071 217.87 712.6 217.87 713.187C217.87 713.78 217.961 714.315 218.143 714.793C218.325 715.27 218.59 715.649 218.938 715.931C219.29 716.21 219.719 716.349 220.226 716.349Z" fill="white"/>
<g clip-path="url(#clip0_64_592)">
<rect width="375" height="47" fill="white" fill-opacity="0.8"/>
<rect width="101.5" height="47" fill="white" fill-opacity="0.8"/>
<g clip-path="url(#clip1_64_592)">
<path d="M34.5385 29.5V20.2109H34.4056L31.601 22.1953V20.2969L34.5463 18.2266H36.5541V29.5H34.5385ZM42.1247 29.5V20.2109H41.9919L39.1872 22.1953V20.2969L42.1325 18.2266H44.1403V29.5H42.1247ZM48.4062 22.1953C47.6953 22.1953 47.1641 21.6484 47.1641 20.9609C47.1641 20.2656 47.6953 19.7266 48.4062 19.7266C49.125 19.7266 49.6484 20.2656 49.6484 20.9609C49.6484 21.6484 49.125 22.1953 48.4062 22.1953ZM48.4062 27.9922C47.6953 27.9922 47.1641 27.4531 47.1641 26.7578C47.1641 26.0625 47.6953 25.5234 48.4062 25.5234C49.125 25.5234 49.6484 26.0625 49.6484 26.7578C49.6484 27.4531 49.125 27.9922 48.4062 27.9922ZM55.9144 29.7266C53.4456 29.7266 51.8284 28.3828 51.68 26.4531L51.6722 26.3594H53.5941L53.6019 26.4453C53.7113 27.3984 54.5941 28.0781 55.9144 28.0781C57.2191 28.0781 58.0863 27.3516 58.0863 26.3047V26.2891C58.0863 25.1016 57.2113 24.4453 55.7659 24.4453H54.4378V22.9453H55.7269C56.9691 22.9453 57.7972 22.2422 57.7972 21.2578V21.2422C57.7972 20.2109 57.1019 19.6016 55.8988 19.6016C54.7113 19.6016 53.8909 20.2344 53.7894 21.2422L53.7816 21.3203H51.9066L51.9144 21.2344C52.0863 19.2813 53.6253 18 55.8988 18C58.2191 18 59.7269 19.2109 59.7269 20.9766V20.9922C59.7269 22.3906 58.7191 23.3203 57.3675 23.6016V23.6406C59.0238 23.7969 60.1253 24.7812 60.1253 26.3438V26.3594C60.1253 28.3438 58.4144 29.7266 55.9144 29.7266ZM66.0709 29.7812C63.3913 29.7812 61.7819 27.5078 61.7819 23.8672V23.8516C61.7819 20.2109 63.3913 17.9453 66.0709 17.9453C68.7506 17.9453 70.3756 20.2109 70.3756 23.8516V23.8672C70.3756 27.5078 68.7506 29.7812 66.0709 29.7812ZM66.0709 28.1484C67.5084 28.1484 68.3444 26.5391 68.3444 23.8672V23.8516C68.3444 21.1797 67.5084 19.5859 66.0709 19.5859C64.6334 19.5859 63.8131 21.1797 63.8131 23.8516V23.8672C63.8131 26.5391 64.6334 28.1484 66.0709 28.1484Z" fill="black"/>
</g>
<g clip-path="url(#clip2_64_592)">
<rect width="172" height="47" transform="translate(101.5)" fill="white" fill-opacity="0.8"/>
</g>
<rect width="101.5" height="47" transform="translate(273.5)" fill="white" fill-opacity="0.8"/>
<g clip-path="url(#clip3_64_592)">
<path d="M294.25 20.5C294.25 19.9477 294.698 19.5 295.25 19.5H296.25C296.802 19.5 297.25 19.9477 297.25 20.5V28.5C297.25 29.0523 296.802 29.5 296.25 29.5H295.25C294.698 29.5 294.25 29.0523 294.25 28.5V20.5Z" fill="black"/>
<path d="M299.25 18.5C299.25 17.9477 299.698 17.5 300.25 17.5H301.25C301.802 17.5 302.25 17.9477 302.25 18.5V28.5C302.25 29.0523 301.802 29.5 301.25 29.5H300.25C299.698 29.5 299.25 29.0523 299.25 28.5V18.5Z" fill="black"/>
<path d="M289.25 24C289.25 23.4477 289.698 23 290.25 23H291.25C291.802 23 292.25 23.4477 292.25 24V28.5C292.25 29.0523 291.802 29.5 291.25 29.5H290.25C289.698 29.5 289.25 29.0523 289.25 28.5V24Z" fill="black"/>
<path d="M284.25 26.5C284.25 25.9477 284.698 25.5 285.25 25.5H286.25C286.802 25.5 287.25 25.9477 287.25 26.5V28.5C287.25 29.0523 286.802 29.5 286.25 29.5H285.25C284.698 29.5 284.25 29.0523 284.25 28.5V26.5Z" fill="black"/>
</g>
<g clip-path="url(#clip4_64_592)">
<path fill-rule="evenodd" clip-rule="evenodd" d="M318.8 20.0875C321.266 20.0876 323.639 21.0551 325.426 22.7898C325.561 22.9238 325.776 22.9221 325.909 22.786L327.195 21.4605C327.263 21.3915 327.3 21.298 327.299 21.2008C327.299 21.1035 327.26 21.0105 327.192 20.9423C322.5 16.3526 315.098 16.3526 310.407 20.9423C310.339 21.0105 310.3 21.1035 310.299 21.2007C310.299 21.2979 310.336 21.3914 310.403 21.4605L311.69 22.786C311.823 22.9223 312.038 22.924 312.173 22.7898C313.961 21.0549 316.333 20.0875 318.8 20.0875ZM318.835 24.0894C320.191 24.0893 321.497 24.6035 322.502 25.532C322.638 25.6638 322.852 25.6609 322.984 25.5256L324.269 24.2C324.337 24.1304 324.375 24.0361 324.374 23.9381C324.373 23.8401 324.333 23.7466 324.264 23.6784C321.205 20.7739 316.468 20.7739 313.409 23.6784C313.34 23.7466 313.3 23.8401 313.299 23.9382C313.298 24.0362 313.336 24.1305 313.404 24.2L314.689 25.5256C314.821 25.6609 315.035 25.6638 315.171 25.532C316.175 24.6041 317.481 24.09 318.835 24.0894ZM321.449 26.6767C321.451 26.775 321.413 26.8698 321.344 26.9386L319.121 29.2289C319.056 29.2962 318.967 29.334 318.874 29.334C318.782 29.334 318.693 29.2962 318.628 29.2289L316.404 26.9386C316.335 26.8697 316.297 26.7749 316.299 26.6766C316.301 26.5783 316.343 26.4853 316.415 26.4194C317.835 25.1935 319.914 25.1935 321.334 26.4194C321.405 26.4853 321.447 26.5784 321.449 26.6767Z" fill="black"/>
</g>
<g clip-path="url(#clip5_64_592)">
<path opacity="0.35" d="M340.299 17.5H357.299C359.232 17.5 360.799 19.067 360.799 21V26C360.799 27.933 359.232 29.5 357.299 29.5H340.299C338.366 29.5 336.799 27.933 336.799 26V21C336.799 19.067 338.366 17.5 340.299 17.5Z" stroke="black"/>
<path opacity="0.4" d="M362.299 22V26.2203C363.148 25.8629 363.701 25.0314 363.701 24.1102C363.701 23.1889 363.148 22.3574 362.299 22Z" fill="black"/>
<path d="M338.299 21C338.299 19.8954 339.195 19 340.299 19H357.299C358.404 19 359.299 19.8954 359.299 21V26C359.299 27.1046 358.404 28 357.299 28H340.299C339.195 28 338.299 27.1046 338.299 26V21Z" fill="black"/>
</g>
</g>
<defs>
<clipPath id="clip0_64_592">
<rect width="375" height="47" fill="white"/>
</clipPath>
<clipPath id="clip1_64_592">
<rect width="40" height="13" fill="white" transform="translate(30.75 17)"/>
</clipPath>
<clipPath id="clip2_64_592">
<rect width="172" height="47" fill="white" transform="translate(101.5)"/>
</clipPath>
<clipPath id="clip3_64_592">
<rect width="18" height="12" fill="white" transform="translate(284.25 17.5)"/>
</clipPath>
<clipPath id="clip4_64_592">
<rect width="18" height="12" fill="white" transform="translate(310.25 17.5)"/>
</clipPath>
<clipPath id="clip5_64_592">
<rect width="28" height="13" fill="white" transform="translate(336.25 17)"/>
</clipPath>
</defs>
</svg>
