<svg width="62" height="58" viewBox="0 0 62 58" fill="none" xmlns="http://www.w3.org/2000/svg">
<rect width="62" height="58" fill="white"/>
<path fill-rule="evenodd" clip-rule="evenodd" d="M31 57C46.464 57 59 44.464 59 29C59 13.536 46.464 1 31 1C15.536 1 3 13.536 3 29C3 44.464 15.536 57 31 57ZM31 58C47.0163 58 60 45.0163 60 29C60 12.9837 47.0163 0 31 0C14.9837 0 2 12.9837 2 29C2 45.0163 14.9837 58 31 58ZM38 21.5C38 25.6421 34.6421 29 30.5 29C26.3579 29 23 25.6421 23 21.5C23 17.3579 26.3579 14 30.5 14C34.6421 14 38 17.3579 38 21.5ZM30.5 43H43C43 36.3726 37.4036 31 30.5 31C23.5964 31 18 36.3726 18 43H30.5Z" fill="#D9D9D9"/>
</svg>
