<svg width="62" height="58" viewBox="0 0 62 58" fill="none" xmlns="http://www.w3.org/2000/svg">
<rect width="62" height="58" fill="white"/>
<path fill-rule="evenodd" clip-rule="evenodd" d="M24 29C24 30.6569 22.6569 32 21 32C19.3431 32 18 30.6569 18 29C18 27.3431 19.3431 26 21 26C22.6569 26 24 27.3431 24 29ZM44 29C44 30.6569 42.6569 32 41 32C39.3431 32 38 30.6569 38 29C38 27.3431 39.3431 26 41 26C42.6569 26 44 27.3431 44 29ZM31 32C32.6569 32 34 30.6569 34 29C34 27.3431 32.6569 26 31 26C29.3431 26 28 27.3431 28 29C28 30.6569 29.3431 32 31 32Z" fill="#D9D9D9"/>
</svg>
